<?xml version="1.0" encoding="utf-8"?>
<!-- Generator: Adobe Illustrator 26.4.1, SVG Export Plug-In . SVG Version: 6.00 Build 0)  -->
<svg version="1.1" id="Warstwa_1" xmlns="http://www.w3.org/2000/svg" xmlns:xlink="http://www.w3.org/1999/xlink" x="0px" y="0px"
	 viewBox="0 0 595.3 245" style="enable-background:new 0 0 595.3 245;" xml:space="preserve">
<style type="text/css">
	.st0{fill:#010202;}
</style>
<g>
	<g>
		<path class="st0" d="M221.3,142c-0.5-0.9-1.1-1.7-1.7-2.4c-0.6-0.7-1.1-1.5-1.5-2.2c-0.1-1.8-0.3-3.2-0.8-4.3
			c-0.5-1.1-0.8-2.3-0.8-3.7c0,0.3-0.1,0.5-0.3,0.5c-0.1,0-0.1-0.1-0.1-0.2c0-0.9-0.1-1.7-0.4-2.4c-0.2-0.7-0.5-1.4-0.8-2
			c-0.3-0.6-0.6-1.3-0.9-1.9c-0.3-0.7-0.4-1.5-0.4-2.4c1.2-1.9,2.5-3.7,4.1-5.5c1.5-1.7,2.9-3.6,4-5.6c-0.3-0.2-0.6-0.5-0.7-0.8
			c-0.1-0.3-0.2-0.6-0.2-1v-0.8c0-0.5,0-0.9-0.1-1.2c0.3-0.1,0.6-0.3,0.8-0.7c0.2-0.3,0.3-0.6,0.3-0.8c0-0.1,0-0.1-0.1-0.1
			c0,0-0.1-0.1-0.1-0.1c0.1,0,0.1-0.1,0.1-0.1c0-0.1,0-0.4-0.1-0.7c-0.1-0.3-0.1-0.7-0.1-1c0-0.5,0.1-0.9,0.3-1.2
			c-0.3-1.7-0.6-3.2-0.7-4.4c-0.1-1.3-0.2-2.7-0.2-4.4c-0.4-0.1-0.8-0.4-1.2-0.9c-0.4-0.6-0.7-1.1-1-1.7c-0.3-0.5-0.5-1-0.6-1.3
			c0.1-0.1,0.2-0.1,0.2-0.3c-1.3-0.7-2.6-1.4-3.9-2.3c-1.4-0.9-2.6-1.9-3.6-3.2c-0.7,0.3-1.4,0.5-2.1,0.7c-0.7,0.2-1.5,0.5-2.2,0.8
			c-2.7,1-5.4,2.1-8.4,3.3c-2.9,1.2-5.9,2.4-8.8,3.5c-1.3,0.5-2.6,0.8-3.9,0.9c-1.3,0.1-2.5,0.4-3.7,0.8c-1.2,0.4-2.5,1.4-3.9,2.8
			c-1.4,1.4-2.2,2.9-2.5,4.4c0.5-0.2,0.7-0.4,0.8-0.8c0-0.4,0.3-0.6,0.8-0.8c-0.4,1.2-0.8,2.6-1.2,4c-0.5,1.4-0.7,2.8-0.7,4.2
			c0,0.6,0.1,1.2,0.2,1.9c0.1,0.6,0.4,1.2,0.7,1.7c-0.1,0.1-0.2,0.4-0.2,0.7c0,0.3,0,0.6,0.1,0.8l-0.2,0.1c-0.3,0.1-0.6,0.8-0.7,2
			c-0.1,1.2-0.2,2.6-0.3,4.1c-0.1,1.5-0.1,3.1-0.1,4.6c0,1.5,0,2.7-0.1,3.5c0.3-0.3,0.5-0.7,0.6-1.1c0.1-0.4,0.2-0.8,0.2-1.2
			c0-0.3,0-0.7,0.1-1c0-0.3,0.2-0.6,0.5-0.7c-0.1,0.2-0.1,0.5-0.1,0.8c0,0.9,0.2,1.3,0.6,1.1c-0.3,1.9-0.5,3.9-0.4,5.9
			c0.1,2-0.1,3.8-0.6,5.4v-1.5v-4.4c0-0.6,0-1.1,0-1.7c0-0.6,0-1.2-0.1-1.7c-0.4,1.2-0.7,2.5-0.8,3.9c-0.1,1.4-0.2,2.8-0.2,4.2
			c0,1.2,0.1,2.3,0.2,3.4c0.1,1.1,0.2,2.2,0.2,3.4c0,0.3,0,0.7-0.1,1c0,0.3-0.1,0.6-0.1,0.9c0.1,0.1,0.3,0.1,0.5,0
			c0.2-0.1,0.3,0,0.3,0.4l-0.3,0.1c-0.3,0.1-0.5,0.3-0.5,0.6c0.2,0.1,0.3,0.2,0.3,0.3c0,0.2-0.1,0.5-0.2,0.7
			c-0.1,0.3-0.2,0.5-0.3,0.7c0.3,1,0.6,2.3,0.8,3.8c0.2,1.5,0.3,3,0.3,4.3c0,1.3-0.1,2.6-0.4,4c-0.3,1.4-0.4,2.6-0.4,3.8
			c0,1.3,0.4,2.1,1.1,2.5v-0.5v-1.5c0-0.6,0.1-1,0.2-1.2c0.3,0.3,0.4,0.8,0.4,1.3c0,0.6,0.2,0.9,0.7,1.1v-0.2c0-0.1-0.1-0.2-0.2-0.3
			c-0.1,0-0.2-0.1-0.2-0.3l0.2-0.3c0,0.2,0.1,0.3,0.2,0.3c0.1,0,0.2,0,0.4,0.1c0,0.2-0.1,0.4-0.2,0.4c-0.1,0.1-0.2,0.2-0.2,0.4
			c0,0.1,0.2,0.2,0.6,0.1c0.4-0.1,0.6,0,0.6,0.4c0,0.5-0.2,0.9-0.5,1.2c-0.3,0.3-0.6,0.6-0.9,0.8c-0.3-0.5-0.8-0.9-1.5-1.1
			c0,1,0,1.7,0.1,2.3c0,0.5,0.1,1.2,0.1,2c0.8-0.1,1.5-0.3,2.2-0.5c0.7-0.2,1.4-0.4,2.2-0.7c0.7-0.3,1.3-0.6,1.8-0.9
			c0.5-0.4,0.9-0.7,1.3-1.1c0.4-0.3,0.8-0.7,1.2-1c0.4-0.3,0.8-0.5,1.2-0.7c0.8-0.3,1.5-0.4,2.3-0.4c0.8,0,1.5-0.1,2.3-0.4
			c1.3-0.5,2-1.4,2-2.8c0-0.5,0-1-0.1-1.4c-0.1-0.5-0.1-0.9-0.1-1.4c0-0.6,0.1-1.1,0.2-1.7c0.1-0.6,0.2-1.1,0.2-1.5
			c0-0.7-0.3-0.9-1-0.7c0.1,0.1,0.2,0.2,0.2,0.4c0,0.2-0.1,0.3-0.2,0.4c-0.5-0.2-0.8-0.7-0.8-1.3c0-0.6,0.2-1.2,0.5-1.9
			c-0.3,0.1-0.5-0.3-0.5-1v-1.3c0-0.5-0.1-0.7-0.3-0.6c0.2-0.5,0.3-1,0.3-1.5v-0.9c0-0.6,0.3-1.2,0.8-1.7c-0.1,0.2-0.2,0.6-0.2,1.3
			c0,0.2,0,0.4,0,0.6c0,0.2,0.1,0.3,0.2,0.2c0.1-0.1,0.3-0.8,0.4-2.1c0.1-1.4,0.2-2.9,0.2-4.6c0-1.7,0.1-3.3,0.1-4.7
			c0-1.5,0.1-2.4,0.2-2.8c0.3-0.4,0.8-0.7,1.4-0.9c0.6-0.2,1.2-0.3,1.8-0.3c0.6,0,1.2-0.1,1.8-0.3c0.2-0.1,0.5-0.3,0.9-0.6
			c1,3.4,2.1,6.6,3.4,9.6c1.3,3,2.7,6.4,4.3,10.1c0-0.2,0-0.3,0.1-0.4c0.1,0,0.1,0,0.2,0c0.1,0,0.2,0,0.3-0.1l0.2-0.3
			c0.6,0.6,1.2,1.4,1.8,2.2c0.6,0.9,1.2,1.8,1.6,2.9c-0.2,0.5-0.6,0.9-1.3,1.2c-0.6,0.3-0.9,0.8-0.9,1.4v0.2c1.5-0.9,3.2-1.9,5-3
			c1.8-1.1,3.5-1.9,5.2-2.5c1.9-0.7,3.5-0.9,4.9-0.7c0-0.3,0.1-0.5,0.4-0.6l0.2-0.1c0-0.3,0-0.5,0.1-0.8c0-0.3,0.1-0.5,0.1-0.8
			c0-1.3-0.2-2.5-0.5-3.6C222.3,143.9,221.8,142.9,221.3,142z M179.3,98.7c-0.1,0.1-0.2-0.1-0.2-0.4c0-0.5,0.1-0.8,0.2-1
			c0.1,0,0.2,0.2,0.2,0.4C179.5,98.2,179.5,98.5,179.3,98.7z M182.1,162.8c-0.6,0.2-0.9,0-1.2-0.5c0.1,0.1,0.2,0.1,0.3,0.1
			c0.1-0.1,0.2-0.2,0.3-0.5c0-0.3,0.1-0.5,0.3-0.7c-0.3,0-0.4,0-0.4-0.1c0-0.1,0.1-0.1,0.2-0.2c0.1-0.1,0.2-0.2,0.2-0.3
			c-0.1,0-0.1-0.1-0.2,0c-0.1,0-0.1,0-0.1-0.1c0-0.1,0.1-0.2,0.4-0.3c0.2-0.1,0.4-0.4,0.4-0.8c0.3,0.2,0.4,0.7,0.4,1.4
			C182.6,161.5,182.4,162.2,182.1,162.8z M188.4,160.5c-0.1,0.4-0.2,0.8-0.3,1.1c-0.1-0.1-0.3-0.1-0.6,0V161c0-0.3,0-0.6-0.1-0.8
			c-0.1-0.2-0.1-0.4-0.1-0.8c0-0.1,0.1-0.5,0.2-1.1c0.7,0,1,0.3,1,1.1C188.5,159.7,188.5,160.1,188.4,160.5z M190.1,158.1l0.4-0.1
			c0.3-0.1,0.5,0,0.5,0.2c0,0.1,0,0.2-0.1,0.3c0,0.1-0.1,0.1-0.1,0.2v0.2l0.1-0.2l0.1,0.1c0,0.1,0,0.1-0.1,0.1c0,0-0.1,0.1-0.1,0.1
			v0.1c-0.3,0.1-0.4,0.2-0.5,0.3c0-0.3-0.1-0.6-0.2-0.6c-0.1-0.1-0.2-0.2-0.2-0.5V158.1z M191.3,93.6c0.5-0.8,1.3-1.3,2.1-1.8
			c0.9-0.4,1.8-0.8,2.7-1.2l2.1-0.8l0.9-0.3c-0.3,0.7-0.9,1.2-1.5,1.6c-0.7,0.4-1.4,0.7-2.3,1c-0.7,0.3-1.4,0.5-2.1,0.7
			C192.5,93.2,191.9,93.4,191.3,93.6z M195.6,102.1c0.7-0.2,1.2-0.5,1.7-0.8c0.2,0,0.4,0.2,0.5,0.6c-0.4,0.1-0.7,0.1-1,0.2
			c-0.3,0.1-0.6,0.2-1,0.3c-0.4,0.1-0.6,0.3-0.9,0.4c-0.2,0.1-0.5,0.3-0.8,0.4C194.5,102.6,194.9,102.3,195.6,102.1z M194.5,97
			c0-0.2,0.1-0.4,0.3-0.6c0.2-0.2,0.4-0.4,0.6-0.4c0.3-0.1,0.5,0,0.5,0.3c-0.2,0.1-0.4,0.3-0.6,0.4c-0.2,0.1-0.4,0.3-0.7,0.4
			C194.6,97.1,194.5,97.1,194.5,97z M193.2,97.1c-0.1,0.6-0.5,1-1.2,1.3C192.1,97.8,192.5,97.4,193.2,97.1z M195.8,122.9
			c-1.2,0.5-2.1,1-2.9,1.4c0.3-0.6,1.1-1.2,2.4-1.6c1.2-0.5,2.2-1,3.1-1.7C197.8,121.7,196.9,122.4,195.8,122.9z M204.6,110.7
			c-0.9,1.7-1.8,3.1-2.6,4.2c-1.3,0.7-2.4,1.3-3.4,1.7c-0.9,0.4-1.9,0.8-2.8,1.2c-0.6,0.2-1.3,0.4-2,0.7c-0.7,0.2-1.4,0.4-2.2,0.6
			c-0.1-0.7-0.1-1.5-0.1-2.4c0-0.8,0-1.7,0-2.6c0-1.3,0-2.5,0.1-3.8c0.1-1.3,0.3-2.6,0.6-4c0.7-0.5,1.6-1.1,2.6-1.7
			c1-0.6,2.1-1.1,3.1-1.4c1.2-0.4,2.2-0.7,3.2-0.7c0.9,0,1.6,0.3,2,1.1c1,0,1.8,0.2,2.2,0.7c0.4,0.5,0.6,1.1,0.6,1.9
			C206,107.5,205.5,109,204.6,110.7z M209.2,117.2c-0.2,0.1-0.3,0.2-0.3,0.3c0,0.1,0,0.3-0.2,0.5c-0.3,0-0.4,0-0.4-0.2
			c0-0.1,0.1-0.3,0.2-0.5c0.1-0.2,0.2-0.4,0.3-0.6c0.3-0.1,0.5,0,0.5,0.4L209.2,117.2z M220.3,149c-0.3,0.1-0.6,0.2-1,0.4
			c0.1-0.5,0.5-0.9,0.9-1.1c0.1,0,0.2,0,0.5,0C220.7,148.7,220.6,148.9,220.3,149z"/>
		<path class="st0" d="M317.4,153.7c-0.1,0.1-0.1,0.1-0.2,0.1c-0.3,0.1-0.5,0.1-0.5-0.1c-0.1-0.1-0.1-0.3-0.2-0.5
			c-0.1-0.2-0.2-0.3-0.3-0.5c-0.1-0.1-0.4-0.1-0.8,0c-0.6,0.2-1,0.5-1.4,0.8c-0.3,0.3-0.7,0.5-1.1,0.7c-0.1,0-0.2,0.1-0.4,0.1
			c-0.2,0-0.3,0-0.3,0c0-0.3,0.2-0.5,0.5-0.8c0.3-0.3,0.5-0.4,0.5-0.6l-0.3-0.1c-1.4,1.1-2.7,1.8-4.1,2.3c-0.9,0.3-1.8,0.6-2.7,0.8
			c-0.9,0.2-1.9,0.5-3,0.9c-0.8,0.3-1.5,0.6-2.2,1c-0.7,0.4-1.3,0.7-1.9,0.9c-0.3,0.1-0.5-0.5-0.7-1.8c-0.2-1.3-0.3-2.9-0.4-4.7
			c-0.1-1.8-0.2-3.6-0.2-5.4c0-1.8-0.1-3.1-0.1-3.9c0.1-3.6,0.2-7.2,0.5-11.1c0.2-3.8,0.4-7.3,0.4-10.4c0-0.8-0.1-1.2-0.4-1.4
			c-0.2-0.2-0.4-0.3-0.4-0.5c0-0.1,0-0.1,0.1-0.1c0,0.1,0,0.1,0.1,0.1l0.2-0.1v-0.2c0-0.1-0.1-0.2-0.4-0.2c-0.2,0-0.4-0.4-0.4-1.2
			c0-1.3,0.2-2.6,0.5-3.7c0.3-1.2,0.5-2.4,0.5-3.8c-0.1-0.3-0.3-0.5-0.6-0.6c0,0,0,0-0.1-0.1c0-0.2,0.1-0.4,0.1-0.7
			c0.3-2.3,0.5-4.6,0.5-6.8c0-1.8-0.2-3.3-0.6-4.4c-0.4-1.1-0.6-2.5-0.6-4c0-1,0.1-2,0.2-3.1c0.1-1.1,0.2-2.2,0.2-3.1
			c0-0.5-0.1-1.1-0.2-1.9c-0.1-0.8-0.3-1.1-0.7-1c-0.1,0.1-0.3,0.2-0.4,0.4c-0.1,0.2-0.4,0.4-0.7,0.5c-0.2-0.2-0.4-0.4-0.6-0.6
			c-0.2-0.2-0.4-0.4-0.7-0.6c-2.2,0.9-4.3,1.8-6.3,2.7c-2,0.9-3.9,1.7-6,2.4c-0.9,0.3-1.8,0.6-2.8,0.9c-1,0.3-2,0.5-2.9,0.8
			c-0.3,0.5-0.7,1-1.2,1.3c-0.5,0.3-0.7,1-0.7,1.9c0,0.8,0,1.5-0.1,2.2c0,0.7-0.1,1.4-0.1,2.1c0,1,0.1,2,0.2,2.9
			c0.1,0.9,0.4,1.6,0.8,2.1c0.4,0.5,1,0.9,1.8,1.1c0.8,0.2,1.9,0.1,3.3-0.3c-0.1,1.8-0.1,3.4-0.2,4.9c0,1.5-0.5,3-1.5,4.6
			c-1.9,0.7-3.4,1.2-4.6,1.6c-1.2,0.4-2.6,0.8-4.1,1.4c-0.4-0.4-0.5-1.1-0.6-2c0-0.9-0.1-1.7-0.1-2.5c0-0.6,0.1-1.8,0.2-3.6
			c0.1-1.9,0.3-4,0.5-6.4c0.2-2.4,0.4-5,0.7-7.6c0.2-2.7,0.5-5.1,0.7-7.3c0.2-2.2,0.5-4.1,0.7-5.5c0.2-1.5,0.4-2.2,0.5-2.3l1.6-0.6
			c0.7-0.3,1.2-0.5,1.5-0.7c0.4,0.3,0.9,0.4,1.6,0.4c0.6,0,1.3-0.1,1.9-0.3c0.7-0.2,1.3-0.4,1.9-0.7c0.6-0.2,1.2-0.4,1.6-0.6
			c1.7-0.6,3.5-1.4,5.2-2.2c1.7-0.8,3.6-1.6,5.6-2.5c0.3,0,0.5,0,0.6,0.2c0.1,0.1,0.3,0.1,0.7,0c1-1.2,1.8-2.6,2.1-4
			c0.4-1.5,0.6-3,0.6-4.5c0-0.4,0-1.1-0.1-2.1c-0.1-0.9-0.2-1.9-0.3-2.8c-0.1-0.9-0.2-1.7-0.4-2.4c-0.2-0.7-0.3-1-0.5-0.9
			c-0.3,0.1-0.6,0.3-0.8,0.5c-0.2,0.2-0.5,0.4-0.8,0.5c-1.2-0.3-2.5-0.3-3.8,0c-1.4,0.4-2.8,0.8-4.4,1.4c-0.6,0.2-1.1,0.4-1.6,0.7
			c-0.5,0.3-1,0.5-1.6,0.7c-1.8,0.7-3.6,1.2-5.3,1.5c-1.7,0.3-3.4,0.8-5.1,1.4c-2.2,0.8-4.2,1.6-6.2,2.6c-0.8,0.4-1.7,0.9-2.7,1.4
			c-1,0.5-2,0.9-2.9,1.2c-1.3,0.5-2.1,0.6-2.4,0.4c-0.4,0.3-0.7,0.6-0.7,0.9c-0.1,0.3-0.5,0.6-1.2,0.8c-0.1,0-0.2-0.1-0.2-0.3
			c0-0.2-0.2-0.2-0.6,0c-0.2,1.7-0.4,3.4-0.7,5.1c-0.2,1.7-0.4,3.3-0.4,4.8c0,0.6,0,1.1,0.1,1.5c0.1,0.4,0.1,0.9,0.1,1.3
			c0,0.3,0,0.7-0.1,0.9c-0.1,0.3-0.1,0.5-0.1,0.8c0,1,0.1,1.9,0.3,2.9c0.2,0.9,0.3,1.9,0.3,2.9c0,0.8-0.1,1.6-0.4,2.4
			c-0.2,0.9-0.3,1.7-0.3,2.4c0,0.4,0,0.9,0.1,1.4c0.1,0.5,0.1,1,0.1,1.5c0,0.1,0,0.3-0.1,0.4c0,0.2-0.1,0.3-0.1,0.4
			c0,0.1,0,0.3,0.1,0.7c0.1,0.4,0.2,0.8,0.3,1.4c0.1,0.5,0.3,1.1,0.5,1.7c0.2,0.6,0.4,1.1,0.6,1.5c-0.1,0.1-0.3,0.2-0.4,0.2
			c-0.1,0-0.2,0.1-0.2,0.2c0.3,0.5,0.5,1.3,0.5,2.4c0,0.8-0.1,1.6-0.2,2.5c-0.1,0.9-0.2,1.6-0.2,2.3v1c0,1.4-0.2,2.9-0.6,4.6
			c-0.4,1.7-0.6,3.1-0.6,4.3l0.1-0.1c0.1,0,0.2,0.1,0.2,0.4c-3,1-6,2.1-8.9,3.2c0.1-0.8,0.2-1.7,0.3-2.7c0.2-1.4,0.4-2.8,0.4-4
			c0-0.8-0.1-1.5-0.3-2.2c0.3-0.7,0.4-1.3,0.4-2c0-0.5-0.1-0.9-0.2-1.4c-0.1-0.4-0.3-0.9-0.4-1.4c0.6-1.6,0.9-3.4,1-5.3
			c0.1-2,0.2-3.9,0.2-5.9c0-0.8,0-1.5-0.1-2.2c0-0.7-0.1-1.4-0.1-2.1c0-0.5,0-0.9,0.1-1.4c0-0.4,0.1-0.8,0.1-1.2v-0.1v-1.2
			c0-0.4,0-0.8-0.1-1.3c-0.1-0.4-0.2-0.7-0.5-0.8c0.1-0.1,0.2,0,0.3,0.1c0.1,0.1,0.2,0.1,0.3,0.1c0-1.4,0.2-2.6,0.5-3.7
			c0.3-1.1,0.5-2.1,0.5-3.1c0-0.1,0-0.3-0.1-0.5c0-0.2-0.1-0.3-0.1-0.5c0,0.1,0.1,0.2,0.4,0.1c-0.3-0.2-0.5-0.6-0.4-1.2
			c0.1-0.6,0-1-0.4-1.2l0.4,0.1c0.1-0.1,0.2-0.2,0.3-0.5l-0.3,0.1c-0.3,0.1-0.6,0.1-0.6-0.2c0.1-0.1,0.2,0,0.3,0
			c0,0.1,0.1,0.1,0.3,0l0.2-0.3c-0.1-0.6-0.1-1.1-0.2-1.6c-0.1-0.5-0.1-1-0.1-1.6c0-0.1,0-0.3,0-0.6c0-0.2,0-0.5,0.1-0.8l-0.2-0.1
			c-0.1,0.1-0.2,0.1-0.3,0.2c0,0.1-0.1,0.1-0.2,0.2c-0.1,0-0.1-0.1-0.1-0.2c0-0.2,0-0.4,0.1-0.5c0.1-0.1,0.1-0.2,0.1-0.4v-0.2
			c-0.3,0.1-0.5,0.1-0.6-0.2c0-0.2-0.1-0.4-0.3-0.5c-0.6,0.2-1,0.3-1.4,0.2c-0.4,0-0.7-0.1-1-0.3c-1,0.9-2.3,1.6-3.9,2.1
			c-0.8,0.3-1.7,0.6-2.6,0.8c-0.9,0.2-1.8,0.5-2.7,0.8c-0.3,0.1-0.7,0.3-1.3,0.6c-0.6,0.3-1.2,0.6-1.8,1c-0.6,0.4-1.1,0.7-1.6,1.1
			c-0.5,0.4-0.7,0.8-0.7,1.2c0,0.3,0.1,0.3,0.4,0.2c0.2-0.2,0.4-0.1,0.5,0.1c0,0.9-0.1,1.7-0.4,2.2l-0.2,0c-0.2,0.1-0.4,0.3-0.5,0.6
			c-0.1,0.4-0.2,0.6-0.4,0.6l-0.1-0.1c0.1,0.7,0.1,1.4,0.1,2.1c0,0.7,0,1.3,0,1.8c0,2-0.1,3.7-0.3,5.2c-0.2,1.5-0.3,3.2-0.5,5.1
			c0.1,0.3,0.1,0.7,0.2,1c0,0.4,0.1,0.8,0.1,1.3c0,0.9,0,1.8-0.1,2.8c-0.1,1-0.1,1.8-0.1,2.6c0,0.9,0.1,1.5,0.2,1.7
			c-0.1,0.8-0.2,1.6-0.3,2.4c-0.1,0.8-0.1,1.4-0.1,2.1c0,1.5,0.1,2.8,0.3,4c0.2,1.2,0.3,2.5,0.3,3.9c0,0.3-0.1,0.9-0.2,1.7
			c-0.1,0.8-0.2,1.6-0.2,2.3c0,0.6,0.1,0.9,0.4,0.8c-0.1,1.4-0.1,3.1-0.2,5c0,0.8,0,1.6,0,2.4c-0.1,0.1-0.1,0.2-0.2,0.3
			c-0.1,1.8-0.2,3.5-0.2,5c0,1.6,0,3.1,0,4.7v3.3c0,2.6,0,5.2-0.1,7.8c-0.1,2.6-0.3,5.5-0.6,8.7l0.2-0.1c0.1-0.1,0.2-0.1,0.3-0.2
			c0.1-0.1,0.1-0.2,0.2-0.2c0.1,0,0.1,0,0.1,0.2c-0.2,1.2-0.4,2.4-0.5,3.7c-0.1,1.3-0.2,2.5-0.2,3.8c0,0.2,0,0.6,0,1
			c0,0.5,0,1,0.1,1.4c0,0.5,0.1,0.9,0.2,1.2c0.1,0.3,0.2,0.4,0.4,0.4v-0.2c0-0.1,0-0.1,0.1-0.1c0.1,0.2,0.2,0.4,0.2,0.4
			c0,0.5-0.3,1-0.8,1.5c-0.5,0.5-0.8,1.1-0.8,1.7c0,0.9,0.2,2,0.5,3.3c0.3,1.3,0.5,2.3,0.5,3.1c0,1.4,0,3-0.1,4.9
			c-0.1,1.9-0.2,3.6-0.5,5.3c-0.3,1.7-0.6,3.2-0.9,4.6c-0.3,1.4-0.5,2.7-0.4,4c0,0.4,0,0.8,0,1.2c0,0.4,0.1,0.8,0.2,1.1
			c1-0.9,2-1.6,3-2.2c1-0.6,2.2-1,3.3-1.5c0.6-0.2,1.1-0.4,1.7-0.6c0.6-0.2,1.1-0.4,1.7-0.6c0.7-0.3,1.4-0.6,2.2-0.9
			c0.8-0.3,1.5-0.7,2.3-1.1c0.3,0,0.5,0,0.6,0.1c0.1,0.1,0.2,0.1,0.4,0.2c0.2-0.5,0.6-0.9,1.1-1.2c0.5-0.3,1.1-0.5,1.6-0.7
			c0.6-0.2,1.1-0.4,1.7-0.7c0.6-0.3,1.1-0.7,1.4-1.1c-0.3-0.1-0.8-0.1-1.3,0c-0.3,0.1-0.7,0.3-1.1,0.5c-0.4,0.2-0.8,0.4-1.2,0.5
			c-0.6,0.2-1,0.3-1.2,0.2c0.4-0.5,0.7-1,0.9-1.6c0.2-0.6,0.3-1.1,0.4-1.6c0.1-0.5,0.1-1,0.2-1.6c0-0.5,0.1-1,0.3-1.5
			c0.3-0.1,0.5,0.1,0.5,0.4c0,0.1,0,0.3-0.1,0.4c0,0.2-0.1,0.3-0.1,0.4c0,0.3,0.1,0.4,0.4,0.4c-0.1-1.5-0.2-3.1-0.3-5
			c0-1.9-0.1-3.8-0.1-5.7c0-0.9,0-1.9-0.1-3c0-1.1,0-2.2,0.1-3.2c0.1-1,0.3-1.9,0.6-2.7c0.3-0.8,0.8-1.3,1.5-1.5
			c0.5-0.2,1-0.3,1.6-0.5c0.6-0.1,1.1-0.3,1.7-0.5c3-1.1,5.6-2.2,8-3.4c2.3-1.2,4.6-2.4,6.8-3.6c0.3-1,0.8-2,1.5-2.9
			c0.7-0.9,1.4-1.8,2.2-2.8c0.8-0.9,1.5-1.9,2.2-2.8c0.7-0.9,1.2-1.9,1.6-2.9c0.2-0.6,0.3-1.4,0.4-2.2c0.1-0.8,0.1-1.5,0.2-2.1
			c0.1-1.5,0.3-2.8,0.5-3.9c0.2-1.1,0.3-2.2,0.4-3.3c0-0.1-0.1-0.1-0.2-0.2c-0.1-0.1-0.2-0.1-0.2-0.3c0-0.8,0-1.8-0.1-2.8
			c0-1,0-1.9-0.1-2.9c1.8-0.8,3.6-1.5,5.5-2.2c1.1-0.4,2.2-0.8,3.3-1.1c0,0.3,0,0.6,0,0.9c0,7.8-0.2,15.1-0.6,22
			c-0.4,6.9-0.6,13.5-0.6,19.9c0,0.3,0,0.9,0,1.7c0,0.8,0,1.6,0,2.4c0,0.8,0,1.5,0.1,2.1c0.1,0.6,0.2,0.9,0.3,0.8
			c0.3-0.1,0.6-0.3,0.8-0.5c0.2-0.2,0.4-0.4,0.6-0.5c0.1-0.1,0.3,0,0.4,0.1c0,0.6-0.3,1.1-1,1.5c-0.7,0.4-1.2,0.7-1.5,0.9
			c0.3,0.2,0.8,0.4,1.6,0.4c0.8,0,1.4,0,1.9-0.2c0.1-0.1,0.3-0.2,0.4-0.4c0.8,0.5,2.1,0.4,3.9-0.3c1.2-0.4,2.4-1,3.6-1.8
			c-0.1,0-0.1,0-0.2-0.1c0.1-0.1,0.2-0.1,0.2-0.3c0-0.1-0.1-0.3-0.2-0.3l0.4-0.2c0.6-0.2,1.1-0.5,1.6-0.8c0.5-0.3,1-0.6,1.5-0.7
			l0.4-0.2c-0.6,0.4-0.9,0.6-0.7,0.8c0.1,0.2,0,0.6-0.3,1.3c0.3-0.2,0.7-0.4,1.1-0.5c0.4-0.2,0.8-0.3,1.2-0.5c1.3-0.5,2.7-0.9,4-1.3
			c1.4-0.4,2.7-0.8,4-1.3c1.2-0.4,2.2-0.9,3-1.4c0.8-0.5,1.5-1.1,2.2-1.6c0.7-0.6,1.4-1.1,2-1.6c0.6-0.5,1.4-0.9,2.2-1.2
			c0.3-0.1,0.6-0.1,0.8-0.1c0.3,0,0.6,0,0.8-0.1c0.2-0.1,0.4-0.5,0.7-1.4c0.2-0.9,0.5-1.8,0.6-2.9c0.2-1.1,0.3-2.2,0.5-3.3
			c0.1-1.1,0.2-2,0.2-2.6c0-1.3-0.2-2.5-0.6-3.7C317.6,153.6,317.5,153.7,317.4,153.7z M292.9,67.6c0.2-0.1,0.3-0.1,0.4,0
			c0.1,0,0.2,0,0.4,0c0,0.2-0.1,0.4-0.2,0.5c0.2,0.1,0.3,0.1,0.3,0.2c0,0.1-0.1,0.3-0.3,0.5c-0.2,0.2-0.3,0.4-0.3,0.7
			c-0.3,0-0.4-0.2-0.5-0.4c0-0.2-0.1-0.5-0.2-0.8C292.8,68.1,292.9,67.9,292.9,67.6z M276.6,77.3c0.1-0.2,0.2-0.4,0.2-0.5
			c0.6-0.1,1-0.1,1.3-0.1c0.3,0,0.6-0.1,1-0.2c0.3-0.1,0.6-0.3,0.8-0.4c-0.2,0.4-0.5,0.7-0.7,0.8c-0.3,0.1-0.7,0.2-1,0.2
			c-0.4,0-0.7,0-0.9,0.1c-0.4,0.1-0.6,0.3-0.6,0.5c-0.1,0.1-0.2,0-0.2,0C276.4,77.6,276.4,77.5,276.6,77.3z M272.2,68.1l0.6-0.2
			c-0.4,0.3-0.9,0.6-1.4,1.1c-0.5,0.4-0.9,0.7-1.4,0.9c-0.3,0.1-0.5,0.1-0.5,0.1C270.3,69.1,271.1,68.5,272.2,68.1z M228.1,199.4
			c-0.4,0.5-0.6,1-0.6,1.5c0,0.1,0.1,0.4,0.2,0.8c-0.5-0.1-0.7-0.5-0.7-1.1c0-0.5,0.1-1,0.3-1.6c0.2-0.6,0.5-1.2,0.8-1.7
			c0.4,0,0.6,0.1,0.6,0.4C228.7,198.3,228.5,198.9,228.1,199.4z M293.8,87.5c0.1-0.1,0.2-0.4,0.2-0.6c0.2,0,0.5,0,0.8,0
			c0.3,0,0.5,0,0.5,0.1c0,0.1-0.1,0.3-0.2,0.4c-0.1,0.2-0.2,0.3-0.2,0.3c0,0.1,0,0.1,0.1,0.1l0.3-0.1c-0.3,0.3-0.4,0.7-0.4,1.1v0.3
			c-0.5,0.2-0.7,0-0.7-0.4c0-0.5-0.2-0.7-0.6-0.6C293.6,87.9,293.7,87.7,293.8,87.5z M287.7,88.7c0.9-0.4,1.7-0.8,2.4-1l0.7-0.3
			c-0.8,0.7-1.5,1.2-2.3,1.5c-0.8,0.3-1.7,0.7-2.8,1.2C286.2,89.6,286.9,89.1,287.7,88.7z M279.7,99.5c0.2-0.2,0.5-0.5,0.9-0.6
			c0,0.4-0.2,0.7-0.5,0.9c-0.4,0.2-0.7,0.3-1,0.5C279.3,100.1,279.5,99.8,279.7,99.5z M277.6,98.1c0-0.2,0.1-0.4,0.3-0.7
			c0.2-0.3,0.3-0.5,0.3-0.6c0-0.1,0-0.2-0.1-0.2c0-0.1,0.1-0.2,0.3-0.3c0.2-0.1,0.4-0.1,0.5,0c0,0.3-0.1,0.7-0.3,1
			c-0.2,0.3-0.4,0.6-0.6,1C277.8,98.3,277.6,98.3,277.6,98.1z M279.5,103c-0.7,0.3-1,0.1-1-0.4c0.3-0.1,0.5-0.2,0.7-0.3
			c0.2-0.1,0.4-0.2,0.5-0.2c0.1-0.1,0.3-0.1,0.4-0.2c0.1-0.1,0.2,0,0.2,0.1C280.4,102.5,280.1,102.8,279.5,103z M271.2,120.3
			c0.4-0.3,0.8-0.5,1.2-0.6c0.5-0.2,0.8-0.3,1-0.3c-0.4,0.3-0.7,0.7-1.2,1c-0.4,0.4-0.8,0.6-1.3,0.8c-0.3,0.1-0.5,0.1-0.6,0.1
			C270.6,120.9,270.8,120.5,271.2,120.3z M267.2,81.8v-0.2l0.1,0c0.2-0.1,0.3,0,0.3,0.3c0,0.6-0.1,0.9-0.2,0.9
			c-0.1,0.1-0.2,0-0.2-0.2V81.8z M260.5,103.5v-3v-1.3c0.3,0.4,0.5,1.1,0.5,2c0,0.6-0.1,1.3-0.2,2c-0.1,0.7-0.2,1.5-0.2,2.3
			c-0.1-0.3-0.2-0.6-0.2-1C260.5,104.2,260.5,103.9,260.5,103.5z M254.4,135.1C254.5,135.1,254.5,135.1,254.4,135.1
			C254.5,135.1,254.4,135.1,254.4,135.1C254.4,135.1,254.4,135.1,254.4,135.1z M254.1,131.6c-0.2,0.6-0.6,1.1-1.3,1.5
			c-0.6,0.4-1.3,0.7-2.1,1c-0.8,0.3-1.5,0.5-2.2,0.6c-0.7,0.1-1.3,0.3-1.7,0.3c0.6-0.5,1.2-1.1,2-1.8c0.8-0.6,1.7-1.1,2.7-1.5
			C252.4,131.6,253.3,131.5,254.1,131.6z M249.3,126.1c0.4-0.1,0.7-0.2,1.1-0.2c-0.2,0.8-1,1.5-2.3,2.1c-0.7,0.3-1.4,0.6-2,0.9
			c0-0.5,0-0.9,0.1-1.4c0.6-0.4,1.3-0.8,2.1-1C248.5,126.4,248.9,126.2,249.3,126.1z M237.3,180.5l-0.1,0c0.1-0.6,0.1-1,0.1-1.2
			c0-0.2,0-0.5,0.2-0.9c0.1,0.1,0.2,0.4,0.2,1C237.7,180.1,237.6,180.4,237.3,180.5z M237.7,181.6c0,0.2,0,0.4-0.1,0.7
			c-0.1,0.2-0.1,0.5-0.1,0.7v0.2c-0.2,0-0.3-0.2-0.3-0.5c0-0.3,0-0.6,0.1-0.8c0.1-0.3,0.1-0.5,0.2-0.6
			C237.6,181.2,237.7,181.3,237.7,181.6z M237.1,177.4c-0.1-0.4-0.2-0.8-0.3-1.3c-0.1-0.5-0.1-1-0.2-1.5c0-0.5-0.1-0.9-0.1-1.1
			c0.3,0.2,0.6,0.8,0.8,1.9c0.2,1.1,0.3,1.9,0.3,2.5v0.2C237.5,178,237.3,177.7,237.1,177.4z M232.8,194.1c-0.1,0-0.1,0-0.2,0
			c0,0-0.2,0-0.4,0.1c0.1,0.1,0.2,0.2,0.3,0.2c0.1,0,0.2,0.1,0.2,0.2c0,0.2-0.1,0.4-0.4,0.5c-0.1,0.1-0.3,0-0.4-0.1
			c-0.1-0.1-0.3-0.2-0.5-0.2c0.3-0.2,0.6-0.4,0.6-0.7c0.1-0.3,0.1-0.5,0.2-0.8c0-0.3,0.1-0.5,0.1-0.8c0-0.3,0.2-0.4,0.5-0.5
			c0,0.5,0.1,0.8,0.2,1c0.1,0.2,0.2,0.5,0.2,1C233,193.9,232.9,194,232.8,194.1z M238.2,191.8c-0.3,1-0.8,1.9-1.4,2.6
			c-0.1,0-0.2-0.1-0.2-0.2s0-0.3,0.1-0.4c0-0.1,0.1-0.2,0.1-0.3c0-0.2-0.2-0.2-0.6-0.1c1-0.6,1.5-1.5,1.7-2.7
			c0.1-1.2,0.3-2.3,0.5-3.3c0.3,0.4,0.4,1,0.4,1.7C238.7,190,238.5,190.8,238.2,191.8z M238.8,185.5c0,0.8,0,1.3-0.1,1.6
			c-0.1-0.2-0.2-0.6-0.2-1.3c0-0.7,0.1-1.4,0.2-2.2c0.1,0.3,0.1,0.6,0.1,0.9S238.8,185.2,238.8,185.5z M244.8,150.4
			c0,0.3,0,0.5-0.1,0.6c0,0.1-0.1,0.2-0.1,0.4v0.3c-0.1-0.5-0.1-0.8-0.1-1.2c0-0.3,0-0.6,0-0.9c0-0.3,0-0.5,0-0.5
			c0.1-0.1,0.1-0.2,0.2-0.2c0.1-0.1,0.2,0.2,0.2,0.7C245.1,150,245,150.3,244.8,150.4z M248.6,167.8c-0.6,0.2-1.4,0.4-2.4,0.6
			c0.3-0.7,1.1-1.2,2.2-1.6c0.6-0.2,1.1-0.3,1.7-0.4c0.6-0.1,0.9,0,1.1,0.2C250,167.2,249.1,167.6,248.6,167.8z M254.8,150.4
			c-0.7,0.6-1.4,1-2,1.2c-1.2,0.4-2.3,0.5-3.2,0.3c-1-0.2-2-0.3-3.1-0.2c-0.3-0.6-0.6-1.5-0.7-2.6c-0.1-1.1-0.2-2.2-0.2-3.4
			c0-1.2,0-2.4-0.1-3.6c0-1.2-0.2-2.3-0.4-3.1c0.8-0.6,1.7-1.2,2.9-1.9c1.2-0.7,2.4-1.3,3.5-1.7c0.9-0.3,1.6-0.5,2.1-0.5
			c0.2,0,0.4,0,0.6,0.1c0,0,0,0,0,0c0,0.3,0.1,0.6,0.4,0.7c0.2,0.1,0.5,0.2,0.8,0.3c0.3,0.1,0.6,0.1,0.9,0.3
			c0.2,0.1,0.3,0.1,0.3,0.2c0,0.2,0,0.4,0,0.7c0,0.1,0,0.2-0.1,0.3c-0.1,0.2-0.1,0.4-0.1,0.6c0.1,0,0.2,0,0.3,0
			c0.2,0.8,0.4,1.7,0.8,2.5c0.7,1.4,1,3,1,4.7c0,0.3-0.2,0.8-0.6,1.5c-0.4,0.6-0.9,1.2-1.4,1.9C256.2,149.2,255.5,149.8,254.8,150.4
			z M258.1,163.3c-0.3,0.4-0.7,0.8-1.3,1.2v-0.2c0-0.1,0-0.3,0.1-0.5c0.1-0.2,0.1-0.3,0.1-0.4c0-0.1-0.1-0.2-0.4-0.2
			c0.5-0.5,1.3-0.9,2.4-1.3C258.7,162.5,258.4,162.9,258.1,163.3z M263.8,160.4c-0.6,0.4-1.3,0.8-2,1.2c0.2-0.5,0.6-1,1.1-1.5
			c0.5-0.5,1.1-0.9,1.6-1.1l0.4-0.2C264.8,159.5,264.4,160,263.8,160.4z M272.8,117.9l-1.4,0.5c0.6-0.4,1.4-0.9,2.6-1.5
			c1.2-0.6,2.2-1.1,3.2-1.4l1-0.4c-0.7,0.6-1.5,1.1-2.5,1.6C274.8,117.1,273.8,117.5,272.8,117.9z M280.2,124.4
			c-0.5,0.3-1,0.6-1.5,0.8c-0.8,0.3-1.3,0.4-1.7,0.5c0.2-0.4,0.6-0.8,1.2-1.2c0.6-0.3,1.1-0.6,1.7-0.8c0.7-0.3,1.2-0.4,1.5-0.4
			C281,123.7,280.6,124.1,280.2,124.4z M281.7,120.8c0.1,0,0.2-0.1,0.2-0.1c0,0.1,0,0.2,0,0.3C281.8,121.1,281.7,121,281.7,120.8z
			 M292.9,160.9c-0.1,0-0.1,0.1-0.1,0.2c-0.1-0.1-0.2-0.2-0.2-0.3c0-0.2,0.1-0.6,0.2-1.2l0.5,1c-0.1,0.2-0.2,0.3-0.1,0.3
			c0.1,0,0,0-0.1,0.1L292.9,160.9z M295.4,171.9c-0.7,0.3-1.4,0.7-2.2,1c0.1-0.5,0.3-1,0.8-1.3c0.5-0.4,1-0.7,1.6-0.9
			c0.3-0.1,0.8-0.2,1.4-0.3C296.6,171.1,296,171.6,295.4,171.9z M297.3,125.2c-0.1,0.1-0.2,0-0.2-0.2v-0.7V124l0.1,0
			c0.3-0.1,0.4,0,0.4,0.3c0,0.1,0,0.3-0.1,0.6C297.5,125,297.4,125.1,297.3,125.2z M304.6,168.5c0,0.1-0.1,0.3-0.3,0.5
			c-0.2,0.2-0.5,0.4-1.1,0.6c0.1-0.7,0.5-1.2,0.9-1.4C304.5,168.2,304.6,168.3,304.6,168.5z M302.6,166.9c0.2-0.1,0.3-0.2,0.3-0.3
			v-0.2c0.1,0.1,0.2,0.1,0.4,0.1c0.1-0.1,0.3-0.1,0.5-0.3c0.2-0.1,0.4-0.2,0.6-0.3c-0.1,0.4-0.4,0.7-0.8,0.9
			c-0.4,0.2-0.7,0.4-1.1,0.7c-0.1,0-0.1-0.1-0.1-0.2C302.3,167,302.4,166.9,302.6,166.9z M301.6,169.6c-0.4,0.4-0.9,0.7-1.3,1
			c-0.5,0.3-1,0.6-1.7,0.9c0.1-0.1,0.4-0.4,0.9-0.8c0.5-0.4,0.9-0.7,1.4-0.9C301.2,169.7,301.5,169.6,301.6,169.6z M299.3,161.3
			c0.4-0.2,0.7-0.2,0.9-0.1c-0.3,0.9-0.8,1.5-1.7,2c0-0.3,0-0.5-0.1-0.7c0-0.2-0.1-0.4-0.1-0.7C298.7,161.6,299,161.4,299.3,161.3z
			 M304.3,172.6c-0.9,0.5-1.8,0.9-2.8,1.3c-1.3,0.5-2.4,0.7-3.3,0.6c1-1,2.5-1.8,4.3-2.5c0.8-0.3,1.5-0.5,2.2-0.6
			c0.7-0.1,1.4-0.2,1.9-0.2C305.9,171.6,305.1,172.1,304.3,172.6z M307.6,162.5c-0.2,0.2-0.4,0.4-0.6,0.7c-0.2-0.1-0.4-0.1-0.6-0.1
			c-0.2,0-0.3-0.1-0.3-0.5l0.2-0.1c0.3-0.1,0.5-0.3,0.7-0.5c0.2-0.2,0.3-0.3,0.5-0.4c0.2-0.1,0.4-0.1,0.5,0
			C308,162.1,307.8,162.3,307.6,162.5z M311.8,164.7c-0.3,0.6-0.7,1-1.3,1.4c-0.2-0.3-0.3-0.7-0.3-1c0-0.6,0.2-1.1,0.5-1.5
			c0.3-0.5,0.8-1,1.2-1.5c0.2,0.3,0.3,0.7,0.3,1C312.2,163.6,312.1,164.2,311.8,164.7z M312,160.3c-0.2,0.2-0.4,0.5-0.7,0.6
			c-0.2,0.2-0.5,0.3-0.7,0.5c-0.2,0.2-0.4,0.4-0.6,0.7c-0.1-0.1-0.1-0.3-0.1-0.5c0-0.5,0.3-0.9,0.9-1.4c0.6-0.4,1.2-0.8,1.7-1.1
			C312.4,159.6,312.2,160,312,160.3z"/>
		<path class="st0" d="M369.3,90.2c-0.2-0.5-0.3-1.2-0.3-1.9c0-0.4,0-0.9,0.1-1.3c0-0.5,0.1-0.9,0.1-1.3c0-0.6,0-1.1-0.1-1.6
			c-0.1-0.5-0.2-1-0.5-1.4c-1.2,0.4-2.2,0.6-3,0.4c-0.8-0.2-1.9,0-3.1,0.4c0.4-0.3,0.9-0.7,1.4-1.1c0.5-0.4,0.8-0.8,0.8-1.2
			c0-0.3-0.3-0.3-0.9-0.2c-0.6,0.2-1.1,0.3-1.4,0.4c-0.9,0.3-1.9,0.8-2.9,1.3c-1,0.5-2,1-3.1,1.4c-1.2,0.5-2.5,0.9-3.8,1.2
			c-1.3,0.4-2.6,0.8-3.9,1.3c-2.1,0.8-4.3,1.6-6.6,2.5c-2.3,0.9-4.5,1.9-6.6,3c-2.1,1.1-3.9,2.2-5.4,3.3c-1.5,1.1-2.5,2.2-3,3.3
			c-0.1,0.6-0.2,1.1-0.2,1.6c0,0.5,0,0.9,0,1.4v3c0,2.6-0.1,5.4-0.4,8.2c-0.2,2.8-0.4,5.5-0.5,8.2c0,0.3,0.1,0.8,0.2,1.3
			c0.1,0.6,0.2,1.1,0.2,1.8c0,0.8-0.1,1.8-0.2,2.9c-0.1,1.1-0.2,2.4-0.2,3.7v6c0,1.3,0,2.5-0.1,3.8c0,1.3-0.1,2.5-0.3,3.7
			c-0.1,0.7-0.3,1.4-0.5,1.8c-0.2,0.5-0.3,1.1-0.3,2c0,1.9,0.1,3.7,0.2,5.6c0.1,1.9,0.5,3.2,1.1,4.1c-0.3,0.9-0.5,1.9-0.5,2.9
			c0,0.8,0.1,1.5,0.2,2.3c0.1,0.8,0.2,1.7,0.2,2.7c0.4,0.1,0.7,0.4,1,0.7c0.2,0.4,0.5,0.8,0.7,1.2c1.2-0.6,2.3-1,3.3-1.3
			c0.9-0.3,2-0.8,3.3-1.5c0.1-0.4,0.4-0.8,0.9-1.4c0.6-0.5,1.1-0.9,1.7-1.1c0.5-0.2,0.9-0.1,1.1,0.1c-0.5,0.4-0.9,0.8-1.3,1.2
			c-0.3,0.4-0.7,0.8-1,1.1c0.1-0.1,0.3-0.1,0.4-0.1c0.1,0,0.2,0,0.4-0.1c1.6-0.6,2.7-1.6,3.2-3c0.5-1.4,0.8-3,0.8-4.6
			c0-1.2-0.1-2.5-0.3-3.7c-0.2-1.2-0.3-2.3-0.3-3.3c0-1.2,0.1-2.4,0.3-3.6c0.2-1.2,0.3-2.4,0.3-3.5v-3.1c0-1.4,0.1-2.6,0.4-3.7
			c0.3-1.1,0.9-1.8,1.9-2.1c0.5-0.2,1.2-0.4,2.2-0.8c1-0.4,2-0.7,3.1-1c1.1-0.3,2.1-0.6,3.1-0.9c0.9-0.3,1.6-0.4,1.9-0.4
			c0.1,0.8,0.1,1.6,0.1,2.4c0,0.8,0,1.6,0,2.4c0,1.7,0,3.4-0.1,5.1c0,1.7-0.1,3.4-0.1,5.1c0,1.8,0.1,3.6,0.2,5.3
			c0.1,1.8,0.4,3.4,0.8,5l0.3-0.1c0.2-0.1,0.3-0.1,0.4,0c0.1,0.1,0.2,0.1,0.3,0.1c0.4-0.3,0.8-0.5,1.3-0.7c0.5-0.2,0.9-0.4,1.4-0.6
			c0.8-0.3,1.5-0.5,2.3-0.8c0.8-0.3,1.6-0.5,2.3-0.8c1-0.4,1.9-0.8,2.8-1.3c0.9-0.5,1.6-1.3,2.3-2.2c0-1,0.2-1.8,0.7-2.6
			c0.5-0.7,0.7-1.5,0.7-2.2c0,0.1-0.1,0.3-0.2,0.5c-0.1,0.2-0.2,0.3-0.4,0.3c-0.1,0-0.1-0.1-0.1-0.2c0.1-0.6,0.2-1,0.2-1.3
			c0-0.3,0-0.5-0.1-0.7c0-0.2-0.1-0.3-0.1-0.6c0-0.6,0.2-1.1,0.5-1.6v0.2v0.3c0,0.2,0.1,0.3,0.2,0.2l0.2-0.1
			c-0.1-5.6-0.4-11.3-0.8-17.1c-0.4-5.9-0.6-11.6-0.6-17.3c0-3.1,0.1-6,0.3-8.9C368.4,95.8,368.7,93,369.3,90.2z M326.5,146.5
			c0.1-0.4,0.1-0.9,0.1-1.2c0-0.4,0-0.7,0-1.1c0-0.6,0-1.1-0.1-1.5c0-0.5-0.1-1-0.1-1.5c0-0.3,0-0.7,0.1-1.2c0-0.4,0.1-0.9,0.2-1.5
			c0.1,0.6,0.2,1.3,0.3,2.2c0.1,0.9,0.2,1.7,0.2,2.5C327.1,144.6,326.9,145.7,326.5,146.5z M330.4,161.2c-0.1,0.2-0.2,0.4-0.3,0.6
			c-0.1,0.2-0.2,0.4-0.4,0.6c-0.1,0.2-0.4,0.4-0.8,0.7c0-0.1,0-0.3-0.1-0.3c0-0.1-0.1-0.2-0.1-0.3c0-1.2,0.4-2,1.1-2.3
			c0.3-0.1,0.5-0.1,0.4,0.2c-0.1,0.3,0,0.4,0.2,0.3c0.1-0.1,0.2-0.1,0.3-0.2C330.7,160.7,330.5,161,330.4,161.2z M337,138.7
			c0.1-0.5,0.2-0.9,0.2-1.3c0-0.1,0-0.3-0.1-0.3c0-0.1-0.1-0.2-0.1-0.3c0.3,0.2,0.4,0.6,0.4,1c0,0.3-0.1,0.7-0.2,1.1
			c-0.1,0.4-0.2,0.8-0.2,1.3c0,0.3,0,0.6,0.1,0.7c-0.3-0.2-0.4-0.5-0.4-0.9C336.8,139.6,336.9,139.2,337,138.7z M337.9,160
			c-0.2,0.3-0.5,0.6-0.9,0.8v-0.4c0-0.5,0.1-0.9,0.2-1.4c0.1-0.4,0.2-1,0.2-1.6c0.5,0.3,0.7,0.8,0.7,1.6
			C338.2,159.4,338.1,159.7,337.9,160z M339.3,143.8l-0.1-0.1c-0.1,0-0.1-0.1-0.1-0.3c0-0.2,0.1-0.4,0.2-0.6
			c0.1-0.2,0.2-0.3,0.2-0.5c0.1-0.1,0.2,0.2,0.2,0.7C339.6,143.5,339.5,143.8,339.3,143.8z M340.4,119c-0.1,0.2-0.2,0.5-0.2,0.7v0.1
			c-0.2,0-0.3-0.1-0.3-0.2c0-0.1,0.1-0.3,0.2-0.6c0.1-0.2,0.2-0.5,0.2-0.7c0.2-0.1,0.3,0,0.3,0.1C340.6,118.5,340.5,118.7,340.4,119
			z M352.2,128.9c-0.4,0.2-0.7,0.2-0.9,0.3c-0.2,0-0.4,0.1-0.6,0.2c-0.2,0.1-0.4,0.2-0.6,0.3v-0.2c0-0.7,0.3-1.2,0.8-1.4
			c0.6-0.3,1.1-0.6,1.7-1c-0.1,0.3-0.2,0.6-0.2,0.9C352.5,128.2,352.4,128.5,352.2,128.9z M353.9,114.6c-0.6,0.2-1-0.1-1-0.7
			c-0.6,1.1-1.4,2-2.7,2.7c-1.2,0.7-2.5,1.3-3.8,1.8c-0.3,0.1-0.8,0.3-1.3,0.5s-1,0.3-1.5,0.4c-0.5,0.1-0.9,0.2-1.2,0.2
			c-0.3,0-0.5,0-0.5-0.2c0-1.3,0.1-2.7,0.4-4.1c0.3-1.4,0.5-2.8,0.6-4.3c0-0.3,0-0.5-0.1-0.8c0-0.3-0.1-0.5-0.1-0.8
			c0-0.9,0.3-1.6,1-2.2c0.7-0.6,1.5-1.1,2.4-1.4c1.1-0.4,2.2-0.7,3.3-0.8c1.1-0.1,1.9-0.1,2.4,0c0.1,0.4,0.3,0.8,0.6,1.1
			c0.2,0.3,0.6,0.4,1.1,0.4c0.1,0.8,0.1,1.3,0.1,1.6c0,0.2,0,0.7,0.1,1.3c-0.1,0-0.3,0-0.4,0c-0.1,0.1-0.2,0.2-0.1,0.4
			c0.1,0.2,0,0.4-0.3,0.7c0,0.1,0.1,0.2,0.2,0.1c0.1-0.1,0.3-0.2,0.4-0.4c0.1-0.2,0.2-0.3,0.4-0.4c0.1,0,0.1,0,0.1,0.1v0.8
			c0,0.5,0,0.9,0.1,1.2c0,0.3,0.1,0.7,0.1,1C354.2,113.5,354.1,114,353.9,114.6z M360,153.3c-0.2,0.1-0.4,0.1-0.6,0.2
			c-0.2,0-0.3,0.1-0.5,0.1c-0.3,0.1-0.5,0.2-0.6,0.3c0.1-0.3,0.2-0.5,0.4-0.7c0.2-0.1,0.3-0.3,0.5-0.5c0.1-0.1,0.2,0,0.3,0.1
			c0,0.1,0.1,0.2,0.2,0.2v-0.4c0.3,0,0.5,0,0.6,0C360.1,152.8,360,153,360,153.3z M365.3,89.9c0-0.2,0.1-0.4,0.1-0.6v-0.2
			c0.3,0.1,0.4,0.3,0.4,0.5c0,0.2,0,0.4-0.1,0.7c-0.1,0.3-0.1,0.5-0.1,0.7c-0.2,0-0.3-0.2-0.3-0.5C365.2,90.3,365.2,90.1,365.3,89.9
			z M365.2,150.9c-0.5,0.5-1.2,1-2,1.4c0.1-0.7,0.4-1.3,0.9-1.9c0.6-0.5,1.1-0.9,1.8-1.1c0.1-0.1,0.3-0.1,0.4-0.1
			c0.1,0,0.2,0,0.4-0.1C366.2,149.8,365.7,150.4,365.2,150.9z M366.5,146.1c-0.1,0.4-0.4,0.7-0.8,0.8c-0.3-0.2-0.4-0.5-0.4-1.1
			c0-0.3,0-0.7,0.1-1.1c0.1-0.4,0.1-0.8,0.1-1.2v-0.6c0.3,0.3,0.4,0.8,0.4,1.4c0,0.3-0.1,0.6-0.2,0.8c0,0.3,0.1,0.4,0.3,0.3
			c0.1-0.1,0.2-0.1,0.3-0.2c0.1-0.1,0.2-0.1,0.3-0.2c0.1-0.1,0.2-0.1,0.3,0C366.8,145.3,366.6,145.7,366.5,146.1z"/>
		<path class="st0" d="M424.4,66.5c0-0.8,0.1-1.6,0.4-2.4c0.3-0.9,0.4-1.7,0.4-2.5c0-0.8-0.2-1.2-0.5-1.1c-0.3,0.1-0.6,0.2-0.8,0.1
			c0.2-0.1,0.3-0.4,0.3-0.6c0-0.4-0.2-0.7-0.5-0.7c-0.3-0.1-0.8-0.1-1.3-0.1c-0.5,0-1,0-1.4-0.1c-0.5-0.1-0.8-0.3-1.1-0.8
			c-1.3,0.1-2.4,0.4-3.4,0.7c-1.7,0.6-3.3,1.6-4.7,2.9c-1.4,1.3-2.4,2.7-2.9,4.3c0.1,0.2,0.2,0.2,0.5,0.1c0.2-0.1,0.4,0,0.4,0.2
			c-0.2,0.1-0.3,0.2-0.3,0.4c0,0.2,0,0.4-0.1,0.7c0,0.3-0.1,0.5-0.2,0.7c-0.1,0.2-0.2,0.4-0.5,0.6v-0.4c0-0.3-0.1-0.4-0.2-0.3
			c-0.1,0.2-0.1,0.4-0.1,0.6c0,0.3,0.1,0.6,0.4,0.8c0.2,0.2,0.4,0.5,0.4,1c-0.6,0.3-0.8,0.9-0.8,1.8c0,0.4,0,0.8,0.1,1.2
			c0,0.4,0.1,0.8,0.1,1.2c0,0.8-0.2,1.3-0.5,1.8l0.1,0c0.3-0.1,0.4,0,0.4,0.3c0,0.3,0.1,0.4,0.4,0.3c0.1-0.1,0.2-0.2,0.2-0.4
			c0-0.3,0-0.6-0.1-0.9c0-0.3-0.1-0.7-0.1-1.1c0-0.6,0.1-1.1,0.3-1.6c0,0.6,0.1,1.2,0.2,1.6c0.1,0.4,0.2,0.9,0.2,1.4
			c0,0.6-0.1,1.1-0.3,1.7v-0.3c0-0.2-0.1-0.3-0.2-0.2c-0.3,0.1-0.4,0.4-0.4,0.9c0,0.3,0,0.8,0.1,1.3c0.1,0.5,0.2,0.8,0.3,1
			c0-0.1,0-0.1,0.1-0.2c0-0.1,0.1-0.2,0.1-0.2c0-0.3-0.1-0.5-0.2-0.7c-0.1-0.2-0.2-0.4-0.2-0.6c0-0.1,0.1-0.4,0.2-0.7
			c0.2,0.2,0.5,0.2,0.8,0.1c0,1-0.1,1.9-0.3,2.6c-0.2,0.7-0.4,1.3-0.6,1.9c-0.2,0.6-0.4,1.2-0.6,1.9c-0.2,0.7-0.3,1.5-0.3,2.4v0.6
			c-0.8,0.6-1.7,1.1-2.6,1.6c-0.9,0.5-1.8,0.9-2.8,1.4c-0.9,0.5-1.9,1-2.8,1.5c-0.9,0.5-1.7,1.1-2.4,1.7c-0.8-1-1.7-1.8-2.7-2.3
			c-0.3-2.1-0.7-4.1-1-6c-0.3-1.9-0.5-4.1-0.5-6.5c0-1.2-0.1-2.4-0.2-3.5c-0.1-1.1-0.3-2.1-0.7-3c-1.7,0-3.4,0.3-5.3,1
			c-1.1,0.4-2.2,0.9-3.2,1.4c-1,0.6-2,1.1-3,1.8c0,0.3,0,0.6,0.1,0.7c0,0.1,0.1,0.2,0.1,0.3c0,0.1-0.2,0.2-0.5,0.4
			c0.1,0.5,0.2,1,0.2,1.5c0,1.9-0.2,3.8-0.6,5.6c-0.4,1.9-0.6,3.9-0.6,6.1c0,1,0.1,1.8,0.4,2.1c-0.5,1.9-0.7,4.1-0.7,6.5
			c0,1.7,0.1,3.3,0.2,5c0.1,1.7,0.2,3.3,0.3,5c0.6,0.2,1.1,0.4,1.8,0.6c0.6,0.2,1,0.6,1.1,1.4c0.8-0.1,1.3-0.1,1.6,0.2
			c0.3,0.3,0.6,0.6,0.9,0.9c0.3,0.3,0.7,0.6,1.2,0.7c0.5,0.2,1.4,0,2.7-0.4c2.7-1,5.6-2.2,8.6-3.7c3.1-1.5,6.1-2.7,9.1-3.8
			c0.1,0.8,0.2,1.6,0.2,2.4c0,0.8,0,1.7,0,2.5c0,3.3-0.2,6.3-0.6,9c-0.6,0.7-1.2,1.3-2,1.7c-0.8,0.5-1.7,0.9-2.6,1.2
			c-0.9,0.4-1.8,0.7-2.8,1.1c-0.9,0.3-1.9,0.7-2.8,1.1c-0.5,0.2-0.9,0.5-1.1,0.7c-0.2,0.2-0.5,0.3-0.8,0.4c-0.9,0.3-1.5,0.2-1.7-0.3
			c-0.2-0.5-0.4-1-0.4-1.6c0-0.4,0-0.8,0.1-1.3c0-0.4,0.1-0.9,0.1-1.3c0-0.2-0.1-0.5-0.3-0.8c-0.2-0.3-0.4-0.6-0.8-0.7
			c0.3-0.1,0.4-0.3,0.4-0.5c0-0.1-0.1-0.3-0.2-0.5c-0.1-0.2-0.2-0.4-0.2-0.7c-1.3,0.3-2.7,0.7-4.3,0.9c-1.5,0.3-3.1,0.7-4.7,1.3
			c-0.8,0.3-1.5,0.6-2.3,0.9c-0.8,0.3-1.4,0.8-2,1.3c-0.6,0.5-1.1,1.2-1.5,1.9c-0.4,0.7-0.6,1.6-0.6,2.8c0,1,0.1,2,0.3,3
			c0.2,1,0.3,2,0.3,3.1c0,0.6,0,1.1-0.1,1.8c-0.1,0.6-0.1,1.2-0.1,1.8v0.5c0.2,1.5,0.8,2.6,1.7,3.3c0.9,0.7,1.8,1.6,2.6,2.4
			c0-0.1,0.1-0.3,0.4-0.4c0,0.1,0.2,0.3,0.5,0.6c0.3,0.2,0.7,0.5,1,0.7c0.4,0.2,0.7,0.4,1.1,0.5c0.3,0.2,0.6,0.2,0.7,0.3
			c0.8,0.2,1.7,0.2,2.9-0.1c1.2-0.3,2.5-0.7,3.9-1.2c3.9-1.4,7.5-3.1,10.7-4.9c3.3-1.9,6.2-3.3,8.9-4.3c0.7-0.3,1.2-0.4,1.6-0.5
			c2-1.7,3.7-3.3,5.1-4.7c1.4-1.4,2.5-3.3,3.4-5.6c0.7-1.8,1.1-3.8,1.2-5.7c0.1-2,0.3-3.5,0.4-4.6c0.1-0.9,0.3-1.8,0.6-2.7
			c0.3-0.9,0.4-1.9,0.4-2.8c0-1.2-0.1-2.3-0.2-3.4c-0.1-1.1-0.2-2.2-0.2-3.4v-1.1c0.4-4.9,0.9-9.7,1.4-14.2
			c0.5-4.5,0.7-8.8,0.7-12.9c0-1-0.1-2-0.3-3C424.5,68.5,424.4,67.5,424.4,66.5z M381.5,77c0.1-0.6,0.3-1,0.6-1.2
			c0.3-0.1,0.7-0.3,1-0.5C382.9,76,382.3,76.5,381.5,77z M382.3,142.2c-0.3-0.2-0.5-0.4-0.8-0.6c-0.2-0.2-0.4-0.4-0.4-0.8
			c0-0.3,0.1-0.6,0.3-1.1c0.3,0,0.6,0.2,1,0.5c0.4,0.3,0.6,0.6,0.6,1C383,141.7,382.8,142,382.3,142.2z M387.8,140.5
			c-0.3-0.1-0.6-0.2-0.8-0.2c-0.3,0-0.5-0.2-0.6-0.4c0.1-0.1,0.1-0.2,0.2-0.2c0.1-0.1,0.3-0.1,0.5,0c0.2,0,0.4,0,0.6-0.1l0.3-0.1
			C387.9,139.7,387.8,140.1,387.8,140.5z M394.2,126.4c0.7-0.3,1.5-0.6,2.2-0.9c-0.8,0.9-1.7,1.6-2.9,2c-0.4,0.2-0.7,0.2-0.9,0.2
			C393,127.2,393.5,126.8,394.2,126.4z M396,131.2c0,0.1-0.1,0.3-0.4,0.5c-0.3,0.2-0.6,0.3-0.8,0.4c-0.3,0.1-0.6,0.1-0.7,0.1
			c0.1-0.2,0.4-0.5,0.9-0.7l0.5-0.2c0.2-0.1,0.3-0.2,0.4-0.3C395.9,131.1,396,131.2,396,131.2z M394.6,138.4
			c-0.7,0.3-1.3,0.4-1.8,0.3c0.1-0.4,0.4-0.7,0.8-1c0.4-0.3,0.8-0.5,1.2-0.6c0.6-0.2,1.1-0.4,1.6-0.5c0.5-0.1,1-0.3,1.5-0.4
			C397,137.2,395.9,137.9,394.6,138.4z M400.2,129.3c-1,0.5-1.9,0.9-2.7,1.3c0.6-0.7,1.3-1.2,2.2-1.5c0.9-0.3,1.6-0.7,1.9-1.2
			C401.7,128.4,401.2,128.9,400.2,129.3z M414.2,61.3c0.2-0.4,0.7-0.7,1.5-0.9c0.7-0.3,1.2-0.3,1.7-0.2c-0.3,0.5-0.8,0.8-1.4,1
			c-0.3,0.1-0.7,0.2-1,0.2C414.6,61.4,414.4,61.3,414.2,61.3z M415.8,64.5c0-0.6,0.2-0.9,0.7-1.1c0.5-0.2,0.9-0.2,1.1,0
			c-0.2,0.4-0.5,0.7-0.8,0.8c-0.1,0.1-0.3,0.1-0.5,0.1C416.2,64.4,416.1,64.4,415.8,64.5z M416.5,66c0.3-0.5,0.6-0.7,0.8-0.8
			c0.3-0.1,0.4,0.1,0.4,0.7c0,0.3-0.1,0.7-0.2,1.1c-0.1,0.4-0.3,0.7-0.6,1c-0.2-0.1-0.3-0.3-0.3-0.6v-0.6
			C416.6,66.4,416.5,66.1,416.5,66z M418.3,125.4c-0.1,0.2-0.2,0.5-0.3,0.7c-0.1,0.2-0.2,0.5-0.4,0.7c-0.2,0.2-0.5,0.4-1,0.6
			c0.2-0.6,0.5-1.2,0.9-1.9c0.4-0.6,0.8-1,1.1-1.2c0-0.1-0.1-0.2-0.4-0.1c0-0.3,0-0.4,0.1-0.5c0.1,0,0.1-0.1,0.1-0.2
			c0.3,0,0.5,0.1,0.4,0.3c-0.1,0.2,0,0.4,0.1,0.8C418.7,124.9,418.4,125.1,418.3,125.4z"/>
	</g>
	<g>
		<path class="st0" d="M307.2,53l-3.2,1.2v-2.2l9.1-3.3v2.2l-3.2,1.2v9.5l-2.7,1V53z"/>
		<path class="st0" d="M324.4,51.8c-0.1-1.4-0.1-3.1-0.1-4.8l0,0c-0.4,1.6-0.9,3.5-1.3,5l-1.4,5.1l-2.1,0.8l-1.3-4.1
			c-0.4-1.2-0.8-2.8-1.1-4.2l0,0c-0.1,1.6-0.1,3.5-0.2,5l-0.2,4.5l-2.5,0.9l0.8-12l3.5-1.3l1.1,3.5c0.4,1.2,0.7,2.6,1,3.8l0.1,0
			c0.3-1.5,0.7-3.2,1.1-4.6L323,45l3.5-1.3l0.6,11.5l-2.6,0.9L324.4,51.8z"/>
	</g>
</g>
</svg>
