<?xml version="1.0" encoding="utf-8"?>
<!-- Generator: Adobe Illustrator 26.4.1, SVG Export Plug-In . SVG Version: 6.00 Build 0)  -->
<svg version="1.1" id="Warstwa_1" xmlns="http://www.w3.org/2000/svg" xmlns:xlink="http://www.w3.org/1999/xlink" x="0px" y="0px"
	 viewBox="0 0 595.3 412.5" style="enable-background:new 0 0 595.3 412.5;" xml:space="preserve">
<style type="text/css">
	.st0{fill:#010202;}
</style>
<g>
	<path class="st0" d="M254.8,254.2c-0.6,0.1-1.2,0.2-1.8,0.4c-1.2,0.4-2,1-2.3,1.7c1.1-0.2,2-0.4,2.6-0.6c0.6-0.2,1.5-0.7,2.8-1.3
		C255.8,254.2,255.4,254.1,254.8,254.2z"/>
	<path class="st0" d="M265.9,184.1v3.2c0,0.4,0,0.7,0,1.1c0,0.4,0.1,0.7,0.2,1c0-0.8,0.1-1.6,0.2-2.4c0.1-0.8,0.2-1.5,0.2-2.2
		c0-1-0.2-1.7-0.6-2.1V184.1z"/>
	<path class="st0" d="M262.2,251.1c0,0.1,0,0.2-0.1,0.4c-0.1,0.2-0.1,0.3-0.1,0.5v0.2c0.6-0.4,1.1-0.8,1.4-1.2
		c0.3-0.5,0.6-0.9,0.9-1.4c-1.2,0.4-2,0.9-2.6,1.4C262.1,250.9,262.2,251,262.2,251.1z"/>
	<path class="st0" d="M249.2,235.7c-0.1,0-0.1,0.1-0.2,0.2c0,0.1,0,0.3,0,0.6c0,0.3,0,0.6,0,0.9c0,0.3,0,0.7,0.1,1.2v-0.3
		c0-0.1,0-0.3,0.1-0.4c0-0.1,0.1-0.3,0.1-0.6c0.1-0.1,0.2-0.4,0.2-0.9C249.4,235.9,249.4,235.6,249.2,235.7z"/>
	<path class="st0" d="M263.4,233.3c0.4-0.7,0.6-1.2,0.6-1.6c0-1.8-0.4-3.5-1.1-5c-0.4-0.9-0.7-1.8-0.9-2.7c-0.1,0-0.2,0-0.3,0
		c0-0.1,0-0.3,0.1-0.6c0-0.1,0-0.2,0.1-0.3c0-0.2,0-0.5,0-0.7c-0.1-0.1-0.2-0.2-0.4-0.2c-0.3-0.1-0.6-0.2-0.9-0.3
		c-0.3-0.1-0.6-0.2-0.9-0.3c-0.3-0.1-0.4-0.4-0.4-0.7c0,0,0,0,0,0c-0.2,0-0.4-0.1-0.6-0.1c-0.6,0-1.3,0.1-2.3,0.5
		c-1.3,0.5-2.5,1.1-3.8,1.8c-1.3,0.8-2.3,1.4-3.1,2c0.2,1,0.3,2.1,0.4,3.4c0,1.3,0.1,2.5,0.1,3.8c0,1.3,0.1,2.5,0.2,3.6
		c0.1,1.1,0.4,2.1,0.7,2.7c1.2-0.1,2.3,0,3.3,0.2c1,0.2,2.2,0.1,3.4-0.4c0.7-0.2,1.4-0.7,2.2-1.3c0.8-0.6,1.5-1.3,2.1-1.9
		C262.5,234.6,263,234,263.4,233.3z"/>
	<path class="st0" d="M242.5,275c0,0.7,0.1,1.2,0.2,1.4c0.1-0.3,0.1-0.9,0.1-1.7c0-0.4,0-0.7,0-1c0-0.3,0-0.6-0.1-1
		C242.5,273.5,242.5,274.2,242.5,275z"/>
	<path class="st0" d="M259.4,220.9C259.4,220.9,259.4,221,259.4,220.9C259.4,221,259.5,221,259.4,220.9
		C259.5,220.9,259.5,220.9,259.4,220.9z"/>
	<path class="st0" d="M255.1,211.1c-0.4,0.1-0.8,0.1-1.2,0.3c-0.4,0.1-0.8,0.2-1.2,0.4c-0.8,0.3-1.5,0.7-2.2,1.1c0,0.5,0,1-0.1,1.5
		c0.7-0.3,1.4-0.6,2.2-1C254.1,212.7,254.9,212,255.1,211.1z"/>
	<path class="st0" d="M251.4,221c0.4-0.1,1-0.2,1.8-0.4c0.7-0.2,1.5-0.4,2.3-0.7c0.8-0.3,1.6-0.7,2.2-1.1c0.7-0.4,1.1-1,1.3-1.6
		c-0.9-0.1-1.8,0-2.7,0.3c-1,0.4-2,0.9-2.8,1.6C252.8,219.8,252,220.4,251.4,221z"/>
	<path class="st0" d="M287.4,182.4c-0.4,0.2-0.8,0.4-1,0.6c-0.2,0.3-0.4,0.6-0.7,0.9c0.4-0.2,0.7-0.4,1.1-0.6
		C287.2,183.2,287.4,182.9,287.4,182.4z"/>
	<path class="st0" d="M283.7,200c-1,0.4-2.2,0.9-3.4,1.5c-1.2,0.6-2.1,1.2-2.7,1.6l1.4-0.5c1-0.4,2.1-0.8,3.1-1.3
		c1-0.5,1.9-1.1,2.7-1.7L283.7,200z"/>
	<path class="st0" d="M284.7,209.7c-0.6,0.4-1,0.8-1.2,1.2c0.4-0.1,1-0.2,1.8-0.5c0.6-0.2,1.1-0.5,1.6-0.8c0.5-0.3,0.9-0.7,1.2-1.2
		c-0.3,0-0.8,0.2-1.6,0.5C285.9,209,285.3,209.3,284.7,209.7z"/>
	<path class="st0" d="M288.5,205.8c0,0.2,0.1,0.3,0.3,0.2c0-0.1,0-0.2,0-0.4C288.6,205.7,288.6,205.7,288.5,205.8z"/>
	<path class="st0" d="M277.3,205.1c-0.4,0.3-0.7,0.7-0.8,1.1c0.1,0,0.4,0,0.7-0.1c0.4-0.2,0.9-0.4,1.3-0.8c0.4-0.4,0.9-0.8,1.2-1.1
		c-0.2,0-0.6,0.1-1.1,0.3C278.1,204.6,277.7,204.9,277.3,205.1z"/>
	<path class="st0" d="M241.7,280.2c-0.1,1.2-0.7,2.2-1.8,2.9c0.4-0.2,0.7-0.1,0.7,0.1c0,0.1,0,0.2-0.1,0.3c0,0.1-0.1,0.3-0.1,0.4
		s0.1,0.2,0.2,0.3c0.6-0.8,1.1-1.7,1.4-2.8c0.4-1.1,0.6-2,0.6-2.8c0-0.8-0.1-1.4-0.4-1.8C242,277.8,241.8,279,241.7,280.2z"/>
	<path class="st0" d="M294.9,171.5c-0.9,0.5-1.7,1-2.2,1.5c1.2-0.6,2.2-1,3-1.3c0.8-0.3,1.6-0.8,2.5-1.6l-0.8,0.3
		C296.7,170.7,295.8,171.1,294.9,171.5z"/>
	<path class="st0" d="M286.8,185.6c-0.1,0.1-0.3,0.1-0.4,0.2c-0.1,0.1-0.3,0.1-0.6,0.3c-0.2,0.1-0.5,0.2-0.8,0.3
		c0,0.5,0.4,0.6,1.1,0.4c0.6-0.2,0.9-0.5,0.9-1C287,185.6,287,185.6,286.8,185.6z"/>
	<path class="st0" d="M273.1,163.9l-0.1,0v0.2v0.8c0,0.2,0.1,0.3,0.2,0.3c0.1-0.1,0.2-0.4,0.2-1
		C273.5,163.9,273.4,163.8,273.1,163.9z"/>
	<path class="st0" d="M285.5,179.6c-0.1-0.1-0.3-0.1-0.6,0c-0.2,0.1-0.3,0.2-0.3,0.3c0.1,0,0.1,0,0.1,0.2c0,0.1-0.1,0.4-0.3,0.7
		c-0.2,0.3-0.3,0.5-0.3,0.8c0,0.2,0.1,0.3,0.4,0.2c0.2-0.4,0.4-0.7,0.6-1.1C285.4,180.3,285.5,179.9,285.5,179.6z"/>
	<path class="st0" d="M268.5,247.6c-0.6,0.5-0.9,1.1-1.2,1.6c0.7-0.4,1.4-0.8,2.1-1.3c0.7-0.4,1.1-1,1.2-1.6l-0.4,0.2
		C269.6,246.7,269,247.1,268.5,247.6z"/>
	<path class="st0" d="M241.1,270.6c-0.1,0.3-0.1,0.6-0.1,0.9c0,0.4,0.1,0.6,0.3,0.5v-0.2c0-0.2,0-0.5,0.1-0.7
		c0.1-0.2,0.1-0.5,0.1-0.7c0-0.2-0.1-0.4-0.2-0.5C241.3,270.1,241.2,270.3,241.1,270.6z"/>
	<path class="st0" d="M196.6,180.1c0.2-0.1,0.4-0.3,0.6-0.4c0-0.4-0.2-0.5-0.6-0.4c-0.2,0.1-0.4,0.2-0.7,0.5
		c-0.2,0.2-0.3,0.5-0.3,0.7c0,0.1,0.1,0.1,0.2,0C196.1,180.3,196.4,180.2,196.6,180.1z"/>
	<path class="st0" d="M196.1,186.5c0.3-0.1,0.6-0.3,0.9-0.4c0.4-0.1,0.7-0.2,1.1-0.3c0.3-0.1,0.7-0.2,1.1-0.2
		c-0.1-0.5-0.3-0.7-0.6-0.7c-0.5,0.4-1.1,0.7-1.8,0.9c-0.7,0.2-1.2,0.6-1.5,1.2C195.6,186.8,195.8,186.7,196.1,186.5z"/>
	<path class="st0" d="M196.5,175.3c0.9-0.3,1.7-0.7,2.4-1.1c0.7-0.4,1.3-1,1.6-1.7l-1,0.4l-2.2,0.8c-1,0.4-2,0.8-2.9,1.2
		c-0.9,0.4-1.7,1.1-2.3,1.9c0.6-0.2,1.3-0.4,2-0.7C195.1,175.8,195.8,175.6,196.5,175.3z"/>
	<path class="st0" d="M196,188.5c-1.1,0.6-2,1.2-2.8,1.8c-0.4,1.5-0.6,2.9-0.7,4.3c-0.1,1.4-0.1,2.7-0.1,4c0,1,0,1.9,0,2.8
		c0,0.9,0,1.7,0.1,2.5c0.8-0.2,1.6-0.4,2.3-0.7c0.7-0.2,1.4-0.5,2.1-0.7c1-0.3,1.9-0.8,2.9-1.2c1-0.5,2.2-1.1,3.6-1.8
		c0.9-1.1,1.8-2.6,2.8-4.5c1-1.8,1.5-3.5,1.5-4.9c0-0.8-0.2-1.5-0.7-2c-0.4-0.5-1.2-0.7-2.3-0.7c-0.4-0.8-1.2-1.2-2.2-1.2
		c-1,0-2.1,0.3-3.4,0.7C198.2,187.4,197.1,187.9,196,188.5z"/>
	<path class="st0" d="M188.1,248.5v0.7c0.3-0.1,0.5-0.1,0.7,0c0.1-0.4,0.2-0.8,0.3-1.2c0.1-0.4,0.2-0.8,0.2-1.2
		c0-0.8-0.4-1.2-1.1-1.2c-0.1,0.6-0.2,1-0.2,1.2c0,0.4,0,0.7,0.1,0.9C188.1,247.9,188.1,248.1,188.1,248.5z"/>
	<path class="st0" d="M223.6,235.1c-0.3,0-0.5,0-0.6,0c-0.5,0.2-0.9,0.6-1,1.1c0.4-0.2,0.7-0.4,1.1-0.4
		C223.4,235.7,223.6,235.4,223.6,235.1z"/>
	<path class="st0" d="M191.3,246.8c0.1-0.1,0.3-0.2,0.6-0.3v-0.1c0-0.1,0-0.1,0.1-0.1c0,0,0.1-0.1,0.1-0.1l-0.1-0.1l-0.1,0.2V246
		c0-0.1,0-0.1,0.1-0.2c0-0.1,0.1-0.2,0.1-0.3c0-0.3-0.2-0.4-0.5-0.3l-0.4,0.1v0.2c0,0.3,0.1,0.5,0.2,0.6
		C191.2,246.2,191.3,246.4,191.3,246.8z"/>
	<path class="st0" d="M193.9,209.4c0.8-0.4,1.8-0.9,3.1-1.5c1.2-0.6,2.1-1.2,2.7-2.1c-0.9,0.7-2,1.3-3.3,1.8
		C195.1,208.2,194.3,208.8,193.9,209.4z"/>
	<path class="st0" d="M194.3,180.5c-0.8,0.3-1.2,0.7-1.2,1.3C193.7,181.6,194.1,181.1,194.3,180.5z"/>
	<path class="st0" d="M182.5,250.5c0.3-0.7,0.4-1.4,0.4-2.1c0-0.8-0.1-1.3-0.4-1.5c0,0.4-0.1,0.7-0.4,0.9c-0.3,0.1-0.4,0.2-0.4,0.3
		c0,0.1,0,0.1,0.1,0.1c0.1,0,0.1,0,0.2,0c0,0.1-0.1,0.3-0.2,0.3c-0.1,0.1-0.2,0.2-0.2,0.2c0,0.1,0.1,0.1,0.4,0.1
		c-0.1,0.2-0.2,0.4-0.3,0.7c0,0.3-0.1,0.4-0.3,0.5c-0.1,0-0.2,0-0.3-0.1C181.5,250.5,181.9,250.7,182.5,250.5z"/>
	<path class="st0" d="M231.4,287.1c-0.4,0.6-0.7,1.2-0.9,1.8c-0.2,0.6-0.3,1.2-0.3,1.7c0,0.7,0.3,1.1,0.8,1.2
		c-0.1-0.4-0.2-0.7-0.2-0.8c0-0.6,0.2-1.1,0.7-1.6c0.4-0.5,0.7-1.1,0.7-1.8C232,287.2,231.8,287.1,231.4,287.1z"/>
	<path class="st0" d="M240.7,264.6c0.1,0.5,0.2,1,0.3,1.4c0.1,0.4,0.3,0.6,0.6,0.7v-0.2c0-0.6-0.1-1.5-0.3-2.6
		c-0.2-1.2-0.5-1.8-0.8-2c0,0.2,0,0.6,0.1,1.1C240.6,263.5,240.6,264,240.7,264.6z"/>
	<path class="st0" d="M241.4,267.2c-0.1,0.4-0.2,0.7-0.2,0.9c0,0.2,0,0.6-0.1,1.2l0.1,0c0.2-0.1,0.3-0.5,0.3-1.1
		C241.6,267.6,241.5,267.3,241.4,267.2z"/>
	<path class="st0" d="M236.3,281.4c-0.3,0.1-0.5,0.3-0.5,0.6c0,0.3-0.1,0.5-0.1,0.8c0,0.3-0.1,0.6-0.2,0.8c-0.1,0.3-0.3,0.5-0.7,0.7
		c0.2,0.1,0.4,0.1,0.6,0.2c0.1,0.1,0.3,0.1,0.4,0.1c0.3-0.1,0.4-0.3,0.4-0.5c0-0.1-0.1-0.2-0.2-0.2c-0.1,0-0.2-0.1-0.3-0.2
		c0.2-0.1,0.4-0.1,0.4-0.1c0,0,0.1,0,0.2,0c0.1-0.1,0.3-0.1,0.3-0.2c0-0.5-0.1-0.9-0.2-1C236.3,282.3,236.3,282,236.3,281.4z"/>
	<path class="st0" d="M276.1,151.4c0.4-0.2,0.9-0.5,1.4-0.9c0.5-0.4,1-0.8,1.4-1.1l-0.7,0.2c-1.1,0.4-2,1-2.8,1.9
		C275.6,151.6,275.8,151.6,276.1,151.4z"/>
	<path class="st0" d="M300.8,150.9c0-0.3,0.1-0.5,0.3-0.7c0.2-0.2,0.3-0.3,0.3-0.5c0-0.1-0.1-0.1-0.3-0.2c0.1-0.1,0.2-0.3,0.2-0.5
		c-0.2,0.1-0.4,0.1-0.4,0.1c-0.1,0-0.2,0-0.4,0.1c0,0.3-0.1,0.5-0.2,0.5c0.1,0.3,0.1,0.6,0.2,0.9
		C300.4,150.7,300.5,150.9,300.8,150.9z"/>
	<path class="st0" d="M179.5,182.2c0.1-0.2,0.2-0.6,0.2-1.1c0-0.3-0.1-0.5-0.2-0.5c-0.1,0.2-0.2,0.6-0.2,1.1
		C179.2,182.1,179.3,182.2,179.5,182.2z"/>
	<path class="st0" d="M283,159.8c0.1-0.2,0.3-0.4,0.7-0.6c0.3-0.1,0.6-0.2,1-0.1c0.4,0,0.7,0,1.1-0.2c0.3-0.1,0.6-0.4,0.8-0.8
		c-0.2,0.2-0.5,0.3-0.9,0.4c-0.4,0.2-0.8,0.2-1.1,0.2c-0.3,0-0.7,0-1.3,0.1c0,0.1-0.1,0.3-0.2,0.5c-0.1,0.2-0.2,0.3-0.2,0.4
		C282.8,159.9,282.9,159.9,283,159.8z"/>
	<path class="st0" d="M210.9,202.7c0.1-0.2,0.2-0.4,0.2-0.5c0-0.1,0.1-0.2,0.3-0.3l0.2-0.1c0-0.4-0.2-0.6-0.6-0.5
		c-0.1,0.2-0.2,0.4-0.3,0.6c-0.1,0.2-0.2,0.4-0.2,0.6C210.4,202.7,210.6,202.7,210.9,202.7z"/>
	<path class="st0" d="M379,231.5c-0.1,0.1-0.3,0.1-0.3,0.2c-0.1,0.1-0.2,0.1-0.3,0.2c-0.2,0.1-0.3,0-0.3-0.3
		c0.1-0.2,0.2-0.5,0.2-0.9c0-0.7-0.1-1.2-0.4-1.5v0.7c0,0.4,0,0.9-0.1,1.3c-0.1,0.4-0.1,0.8-0.1,1.2c0,0.6,0.1,1,0.4,1.2
		c0.4-0.2,0.7-0.4,0.8-0.9c0.1-0.4,0.3-0.8,0.5-1.2C379.2,231.4,379.1,231.4,379,231.5z"/>
	<path class="st0" d="M378.1,236.1c-0.7,0.2-1.3,0.6-1.9,1.2c-0.6,0.5-0.9,1.2-1,2c0.9-0.5,1.6-1,2.2-1.5c0.6-0.5,1.1-1.1,1.5-1.8
		c-0.1,0.1-0.3,0.1-0.4,0.1C378.4,236.1,378.2,236.1,378.1,236.1z"/>
	<path class="st0" d="M394.7,159.1c0.9-0.5,1.5-1.1,1.8-1.8c-0.4,0.2-0.7,0.4-1.1,0.5C395,158,394.8,158.4,394.7,159.1z"/>
	<path class="st0" d="M395.8,226.5c-0.4-0.3-0.8-0.5-1.1-0.6c-0.2,0.5-0.3,0.8-0.3,1.1c0,0.4,0.1,0.6,0.4,0.8
		c0.3,0.2,0.5,0.4,0.8,0.6c0.5-0.3,0.8-0.6,0.8-0.9C396.4,227.2,396.2,226.9,395.8,226.5z"/>
	<path class="st0" d="M400.7,225.9c-0.2,0-0.4,0-0.6,0c-0.1,0-0.1,0.1-0.2,0.2c0.1,0.3,0.4,0.5,0.7,0.5c0.3,0,0.6,0.1,0.9,0.2
		c0-0.5,0.1-0.9,0.2-1.1l-0.3,0.1C401.2,225.9,400.9,225.9,400.7,225.9z"/>
	<path class="st0" d="M350.8,203c0,0.2-0.1,0.5-0.2,0.7c-0.1,0.3-0.2,0.5-0.2,0.6c0,0.2,0.1,0.2,0.3,0.2v-0.1c0-0.2,0.1-0.5,0.2-0.7
		c0.1-0.3,0.2-0.5,0.2-0.6C351.1,203,351,203,350.8,203z"/>
	<path class="st0" d="M377.8,173.9c0-0.2,0-0.5,0.1-0.8c0.1-0.3,0.1-0.5,0.1-0.8c0-0.2-0.1-0.4-0.4-0.5v0.2c0,0.2,0,0.5-0.1,0.7
		c0,0.2-0.1,0.4-0.1,0.6C377.4,173.8,377.5,173.9,377.8,173.9z"/>
	<path class="st0" d="M361.3,215v0.2c0.2-0.2,0.4-0.3,0.7-0.4c0.2-0.1,0.4-0.1,0.6-0.2c0.2,0,0.5-0.1,0.9-0.3
		c0.2-0.5,0.3-0.8,0.3-1.1c0-0.3,0-0.6,0.2-0.9c-0.6,0.4-1.2,0.8-1.8,1.1C361.6,213.7,361.3,214.2,361.3,215z"/>
	<path class="st0" d="M371.4,239.6v0.4c-0.1,0-0.1,0-0.2-0.2c0-0.1-0.1-0.2-0.3-0.1c-0.1,0.2-0.3,0.4-0.5,0.5
		c-0.2,0.1-0.3,0.4-0.4,0.7c0.1-0.1,0.4-0.2,0.7-0.4c0.1-0.1,0.3-0.1,0.5-0.1c0.2,0,0.4-0.1,0.6-0.2c0-0.3,0.1-0.5,0.2-0.7
		C372,239.6,371.7,239.6,371.4,239.6z"/>
	<path class="st0" d="M365.6,194.9V194c0-0.1,0-0.1-0.1-0.1c-0.1,0.1-0.3,0.2-0.4,0.4c-0.1,0.2-0.2,0.4-0.4,0.4
		c-0.1,0.1-0.2,0-0.2-0.1c0.3-0.3,0.4-0.5,0.3-0.7c-0.1-0.2,0-0.4,0.1-0.4c0.1-0.1,0.3-0.1,0.4-0.1c-0.1-0.6-0.1-1.1-0.1-1.3
		c0-0.3,0-0.8-0.1-1.7c-0.5,0-0.9-0.1-1.2-0.4c-0.3-0.3-0.5-0.7-0.6-1.2c-0.6-0.2-1.5-0.2-2.6,0c-1.1,0.1-2.3,0.4-3.5,0.8
		c-1,0.4-1.9,0.9-2.6,1.5c-0.7,0.6-1.1,1.4-1.1,2.4c0,0.3,0,0.6,0.1,0.9c0,0.3,0.1,0.6,0.1,0.9c-0.1,1.5-0.4,3.1-0.7,4.6
		c-0.3,1.5-0.4,3-0.4,4.4c0,0.2,0.2,0.3,0.5,0.3c0.3,0,0.8-0.1,1.3-0.2c0.5-0.1,1.1-0.3,1.6-0.5c0.6-0.2,1-0.4,1.4-0.5
		c1.4-0.5,2.8-1.2,4-1.9c1.3-0.8,2.2-1.7,2.8-2.9c0.1,0.6,0.4,0.9,1.1,0.7c0.2-0.6,0.3-1.2,0.3-1.8c0-0.4,0-0.7-0.1-1.1
		C365.6,195.9,365.6,195.4,365.6,194.9z"/>
	<path class="st0" d="M432.4,149.4c0.3-0.3,0.5-0.6,0.7-1c0.1-0.4,0.2-0.8,0.2-1.2c0-0.6-0.1-0.8-0.4-0.7c-0.2,0.1-0.5,0.4-0.9,0.9
		c0.1,0.2,0.1,0.4,0.1,0.7v0.7C432.1,149.1,432.2,149.3,432.4,149.4z"/>
	<path class="st0" d="M433.3,144.6c-0.3-0.2-0.7-0.2-1.2,0c-0.5,0.2-0.8,0.6-0.8,1.2c0.2-0.1,0.4-0.1,0.6-0.2c0.2,0,0.4-0.1,0.5-0.1
		C432.8,145.4,433.1,145.1,433.3,144.6z"/>
	<path class="st0" d="M434.6,209c0.1-0.2-0.1-0.3-0.4-0.3c0,0.1,0,0.2-0.1,0.3c-0.1,0-0.1,0.2-0.1,0.5c0.3-0.1,0.4-0.1,0.4,0.1
		c-0.4,0.2-0.8,0.6-1.2,1.3c-0.4,0.6-0.8,1.3-1,2c0.5-0.2,0.9-0.4,1.1-0.7c0.2-0.3,0.3-0.5,0.4-0.8c0.1-0.2,0.2-0.5,0.3-0.8
		c0.1-0.3,0.4-0.5,0.8-0.7C434.6,209.5,434.6,209.2,434.6,209z"/>
	<path class="st0" d="M410.7,210.7c-0.8,0.3-1.6,0.6-2.4,1c-0.8,0.4-1.3,0.8-1.7,1.4c0.2,0,0.6-0.1,1-0.3
		C408.8,212.4,409.9,211.7,410.7,210.7z"/>
	<path class="st0" d="M310.8,56.4c-80.5,0-145.8,65.3-145.8,145.8c0,18.7,3.5,36.5,9.9,53c0-0.2,0-0.4,0-0.6c0-0.6-0.1-1.4-0.1-2.4
		c0.7,0.3,1.3,0.7,1.6,1.2c0.3-0.3,0.6-0.5,0.9-0.8c0.3-0.3,0.5-0.7,0.5-1.2c0-0.4-0.2-0.5-0.6-0.4c-0.4,0.1-0.6,0.1-0.6-0.1
		c0-0.2,0.1-0.4,0.2-0.5c0.1-0.1,0.2-0.2,0.2-0.5c-0.1-0.1-0.3-0.1-0.4-0.1c-0.1,0-0.2-0.1-0.2-0.3l-0.2,0.3c0,0.1,0.1,0.2,0.2,0.3
		c0.1,0,0.2,0.1,0.2,0.3v0.2c-0.5-0.2-0.8-0.6-0.7-1.2c0-0.6-0.1-1.1-0.4-1.4c-0.1,0.3-0.2,0.7-0.2,1.3v1.6v0.6
		c-0.8-0.4-1.2-1.3-1.2-2.7c0-1.2,0.1-2.5,0.4-4c0.3-1.5,0.4-2.9,0.4-4.2c0-1.4-0.1-2.9-0.3-4.6c-0.2-1.6-0.5-3-0.8-4
		c0.1-0.2,0.2-0.4,0.3-0.7c0.1-0.3,0.2-0.6,0.2-0.8c0-0.1-0.1-0.3-0.3-0.3c0-0.3,0.2-0.5,0.6-0.6l0.3-0.1c0-0.4-0.1-0.5-0.3-0.4
		c-0.2,0.1-0.4,0.1-0.5,0c0-0.3,0-0.6,0.1-0.9c0-0.3,0.1-0.7,0.1-1c0-1.3-0.1-2.5-0.2-3.6c-0.1-1.1-0.2-2.3-0.2-3.6
		c0-1.5,0.1-3,0.2-4.5c0.1-1.5,0.4-2.9,0.9-4.2c0.1,0.6,0.1,1.2,0.1,1.8c0,0.6,0,1.2,0,1.8v4.7v1.6c0.5-1.7,0.7-3.6,0.7-5.7
		c-0.1-2.1,0.1-4.2,0.4-6.3c-0.4,0.2-0.7-0.2-0.7-1.2c0-0.3,0-0.6,0.1-0.8c-0.3,0.2-0.5,0.4-0.5,0.8c0,0.3-0.1,0.7-0.1,1.1
		c0,0.4-0.1,0.8-0.2,1.2c-0.1,0.4-0.3,0.8-0.6,1.2c0.1-0.8,0.1-2.1,0.1-3.7c0-1.6,0-3.3,0.1-4.9c0.1-1.6,0.2-3.1,0.3-4.4
		c0.1-1.3,0.4-2,0.8-2.1l0.2-0.1c-0.1-0.2-0.1-0.5-0.1-0.9c0-0.4,0.1-0.6,0.2-0.7c-0.4-0.5-0.6-1.1-0.8-1.8c-0.1-0.7-0.2-1.3-0.2-2
		c0-1.5,0.2-3,0.7-4.5c0.5-1.5,0.9-2.9,1.3-4.3c-0.5,0.2-0.8,0.5-0.8,0.9c0,0.4-0.3,0.7-0.8,0.9c0.3-1.6,1.2-3.1,2.7-4.6
		c1.5-1.5,2.9-2.5,4.1-2.9c1.3-0.5,2.6-0.8,4-0.9c1.4-0.1,2.8-0.4,4.2-1c3.1-1.1,6.2-2.4,9.4-3.7c3.1-1.3,6.1-2.5,8.9-3.5
		c0.8-0.3,1.6-0.6,2.4-0.8c0.8-0.2,1.5-0.5,2.3-0.8c1.1,1.4,2.4,2.5,3.8,3.4c1.4,0.9,2.8,1.7,4.2,2.4c0,0.1-0.1,0.2-0.2,0.3
		c0.1,0.4,0.4,0.8,0.6,1.4c0.3,0.6,0.6,1.2,1.1,1.8c0.4,0.6,0.8,0.9,1.3,1c0,1.8,0.1,3.3,0.2,4.7c0.1,1.3,0.4,2.9,0.7,4.7
		c-0.2,0.3-0.3,0.7-0.3,1.2c0,0.4,0,0.7,0.1,1.1c0.1,0.3,0.1,0.6,0.1,0.7c0,0.1,0,0.1-0.1,0.2c0,0.1,0,0.1,0.1,0.1
		c0,0,0.1,0.1,0.1,0.1c0,0.2-0.1,0.5-0.3,0.8c-0.2,0.3-0.5,0.6-0.9,0.7c0.1,0.3,0.1,0.8,0.1,1.3v0.9c0,0.4,0.1,0.7,0.2,1.1
		c0.1,0.3,0.4,0.6,0.7,0.8c-1.2,2.1-2.6,4.1-4.2,6c-1.6,1.9-3.1,3.8-4.3,5.8c0,1,0.1,1.8,0.4,2.5c0.3,0.7,0.6,1.4,0.9,2
		c0.3,0.7,0.6,1.4,0.9,2.1c0.3,0.8,0.4,1.6,0.4,2.6c0,0.1,0,0.1,0.1,0.2c0.2-0.1,0.3-0.3,0.3-0.6c0.1,1.5,0.4,2.8,0.9,3.9
		c0.5,1.1,0.8,2.7,0.9,4.6c0.4,0.8,1,1.6,1.6,2.4c0.6,0.8,1.2,1.6,1.8,2.6c0.6,0.9,1,2,1.4,3.1c0.4,1.1,0.6,2.4,0.6,3.8
		c0,0.3,0,0.6-0.1,0.9c0,0.3-0.1,0.6-0.1,0.9l-0.2,0.1c-0.3,0.1-0.4,0.3-0.4,0.6c-1.5-0.2-3.2,0.1-5.2,0.8c-1.8,0.6-3.6,1.5-5.5,2.7
		c-1.9,1.1-3.7,2.2-5.3,3.2V244c0-0.7,0.3-1.2,1-1.5c0.7-0.3,1.1-0.7,1.3-1.3c-0.4-1.2-1-2.2-1.7-3.1c-0.7-0.9-1.3-1.7-1.9-2.4
		l-0.2,0.3c-0.1,0.1-0.3,0.1-0.3,0.1c-0.1,0-0.1,0-0.2,0c-0.1,0-0.1,0.2-0.1,0.4c-1.7-4-3.2-7.6-4.6-10.8c-1.4-3.2-2.6-6.6-3.6-10.3
		c-0.4,0.3-0.8,0.5-1,0.6c-0.7,0.2-1.3,0.4-1.9,0.3c-0.6,0-1.3,0.1-1.9,0.3c-0.6,0.2-1.1,0.5-1.4,1c-0.1,0.4-0.1,1.4-0.2,3
		c0,1.6-0.1,3.3-0.1,5.1c0,1.8-0.1,3.4-0.2,4.9c-0.1,1.5-0.2,2.2-0.4,2.3c-0.1,0.1-0.2,0-0.2-0.3c0-0.2,0-0.4,0-0.7
		c0-0.7,0.1-1.2,0.2-1.4c-0.6,0.5-0.9,1.1-0.9,1.8v1c0,0.5-0.1,1-0.3,1.6c0.2-0.1,0.3,0.1,0.3,0.7v1.3c0,0.7,0.2,1.1,0.6,1
		c-0.4,0.7-0.6,1.4-0.6,2c0,0.7,0.3,1.1,0.8,1.4c0.2-0.1,0.2-0.2,0.2-0.4c0-0.2-0.1-0.4-0.2-0.5c0.7-0.3,1.1,0,1.1,0.7
		c0,0.4-0.1,1-0.2,1.6c-0.1,0.6-0.2,1.2-0.2,1.8c0,0.5,0,1,0.1,1.5c0.1,0.5,0.1,1,0.1,1.5c0,1.5-0.7,2.5-2.1,3
		c-0.8,0.3-1.6,0.5-2.5,0.5c-0.8,0-1.6,0.2-2.5,0.5c-0.4,0.2-0.9,0.4-1.3,0.7c-0.4,0.3-0.8,0.7-1.2,1.1c-0.4,0.4-0.9,0.7-1.4,1.1
		c-0.5,0.4-1.2,0.7-1.9,1c-0.8,0.3-1.6,0.5-2.4,0.7c-0.6,0.2-1.2,0.3-1.8,0.4c21.6,53.6,74,91.4,135.3,91.4
		c80.5,0,145.8-65.3,145.8-145.8S391.3,56.4,310.8,56.4z M312.3,132.4l9.6-3.5v2.4l-3.4,1.2v10.2l-2.8,1v-10.2l-3.4,1.2V132.4z
		 M327.2,247.3c-0.1,1.2-0.3,2.3-0.5,3.5c-0.2,1.2-0.4,2.2-0.7,3.1c-0.3,0.9-0.5,1.4-0.7,1.5c-0.3,0.1-0.6,0.2-0.9,0.2
		c-0.3,0-0.6,0-0.9,0.2c-0.9,0.3-1.7,0.8-2.3,1.3c-0.7,0.5-1.4,1.1-2.1,1.7c-0.7,0.6-1.5,1.2-2.4,1.8c-0.9,0.6-1.9,1.1-3.2,1.5
		c-1.4,0.5-2.8,1-4.3,1.4c-1.4,0.4-2.9,0.9-4.3,1.4c-0.4,0.2-0.9,0.3-1.3,0.5c-0.4,0.2-0.9,0.3-1.2,0.6c0.4-0.7,0.5-1.2,0.3-1.3
		c-0.1-0.2,0.1-0.4,0.8-0.8l-0.4,0.2c-0.5,0.2-1,0.5-1.6,0.8c-0.5,0.3-1.1,0.6-1.7,0.8l-0.4,0.2c0.1,0.1,0.2,0.2,0.2,0.4
		c0,0.1-0.1,0.2-0.2,0.3c0.1,0.1,0.1,0.2,0.2,0.1c-1.3,0.9-2.6,1.5-3.9,2c-1.8,0.7-3.2,0.8-4.1,0.3c-0.1,0.2-0.3,0.3-0.4,0.4
		c-0.5,0.2-1.2,0.3-2,0.2c-0.8,0-1.4-0.2-1.7-0.4c0.4-0.2,0.9-0.5,1.6-0.9c0.7-0.4,1.1-0.9,1.1-1.6c-0.1-0.1-0.3-0.1-0.4-0.1
		c-0.2,0.1-0.4,0.2-0.6,0.5c-0.2,0.3-0.5,0.4-0.8,0.6c-0.1,0.1-0.3-0.2-0.3-0.9c-0.1-0.6-0.1-1.4-0.1-2.3c0-0.9,0-1.8,0-2.6
		c0-0.8,0-1.5,0-1.8c0-6.8,0.2-13.9,0.6-21.2c0.4-7.3,0.6-15.1,0.6-23.4c0-0.3,0-0.6,0-0.9c-1.2,0.3-2.4,0.7-3.5,1.2
		c-2,0.7-3.9,1.5-5.9,2.3c0,1,0,2,0.1,3.1c0,1.1,0.1,2.1,0.1,3c0,0.1,0.1,0.3,0.2,0.3c0.1,0.1,0.2,0.1,0.2,0.2
		c-0.1,1.2-0.2,2.4-0.4,3.5c-0.2,1.1-0.4,2.5-0.5,4.1c-0.1,0.6-0.1,1.4-0.2,2.2c-0.1,0.9-0.2,1.7-0.4,2.3c-0.4,1.1-0.9,2.1-1.7,3.1
		c-0.7,1-1.5,2-2.3,3c-0.8,1-1.6,2-2.3,3c-0.7,1-1.3,2-1.6,3.1c-2.4,1.3-4.8,2.6-7.3,3.9c-2.5,1.3-5.3,2.5-8.5,3.6
		c-0.6,0.2-1.2,0.4-1.8,0.5c-0.6,0.1-1.1,0.3-1.7,0.5c-0.7,0.3-1.3,0.8-1.6,1.6c-0.3,0.8-0.6,1.8-0.7,2.8c-0.1,1.1-0.1,2.2-0.1,3.4
		c0,1.2,0.1,2.2,0.1,3.2c0,2.1,0,4.1,0.1,6.1c0,2,0.1,3.8,0.3,5.3c-0.3,0-0.4-0.1-0.4-0.4c0-0.1,0-0.3,0.1-0.5
		c0-0.2,0.1-0.3,0.1-0.5c0-0.4-0.2-0.5-0.6-0.5c-0.1,0.5-0.2,1-0.3,1.6c0,0.6-0.1,1.1-0.2,1.7c-0.1,0.5-0.2,1.1-0.4,1.7
		c-0.2,0.6-0.6,1.2-1,1.7c0.3,0,0.7,0,1.3-0.3c0.4-0.2,0.9-0.4,1.3-0.6c0.4-0.2,0.8-0.4,1.2-0.5c0.5-0.2,1-0.2,1.3,0
		c-0.4,0.5-0.9,0.9-1.5,1.2c-0.6,0.3-1.2,0.6-1.8,0.8c-0.6,0.2-1.2,0.5-1.7,0.8c-0.6,0.3-0.9,0.7-1.2,1.3c-0.1-0.1-0.3-0.2-0.4-0.2
		c-0.1-0.1-0.3-0.1-0.6-0.1c-0.8,0.4-1.6,0.9-2.4,1.2c-0.8,0.4-1.6,0.7-2.3,1c-0.6,0.2-1.2,0.4-1.8,0.6c-0.6,0.2-1.2,0.4-1.8,0.6
		c-1.3,0.5-2.4,1-3.5,1.6c-1.1,0.6-2.2,1.4-3.2,2.3c-0.1-0.4-0.2-0.8-0.2-1.2c0-0.4,0-0.8,0-1.3c-0.1-1.4,0.1-2.8,0.4-4.3
		c0.4-1.5,0.7-3.1,1-4.9c0.3-1.8,0.5-3.7,0.6-5.7c0.1-2,0.1-3.7,0.1-5.2c0-0.8-0.2-1.9-0.5-3.3c-0.3-1.4-0.5-2.5-0.5-3.5
		c0-0.7,0.3-1.3,0.8-1.9c0.6-0.6,0.8-1.1,0.8-1.6c0-0.1-0.1-0.2-0.2-0.5c-0.1,0-0.1,0.1-0.1,0.2v0.2c-0.1,0.1-0.3-0.1-0.4-0.4
		c-0.1-0.3-0.2-0.7-0.2-1.2c0-0.5-0.1-1-0.1-1.5c0-0.5,0-0.9,0-1.1c0-1.3,0.1-2.7,0.2-4c0.1-1.3,0.3-2.7,0.6-3.9
		c0-0.1,0-0.2-0.1-0.2c-0.1,0-0.1,0.1-0.2,0.2c-0.1,0.1-0.2,0.2-0.3,0.2l-0.2,0.1c0.4-3.4,0.6-6.5,0.7-9.3c0.1-2.8,0.1-5.6,0.1-8.3
		v-3.5c0-1.7,0-3.4,0-5s0.1-3.4,0.2-5.3c0.1-0.1,0.2-0.2,0.2-0.3c0-0.9,0-1.7,0-2.5c0-2.1,0.1-3.8,0.2-5.4c-0.3,0.1-0.4-0.2-0.4-0.8
		c0-0.8,0.1-1.6,0.2-2.5c0.1-0.8,0.2-1.4,0.2-1.8c0-1.5-0.1-2.9-0.3-4.2c-0.2-1.3-0.3-2.7-0.3-4.3c0-0.7,0-1.4,0.1-2.2
		c0.1-0.8,0.2-1.6,0.3-2.5c-0.1-0.2-0.2-0.8-0.2-1.8c0-0.8,0-1.7,0.1-2.8c0.1-1,0.1-2,0.1-3c0-0.5,0-1-0.1-1.4
		c0-0.4-0.1-0.8-0.2-1.1c0.1-2,0.3-3.8,0.5-5.4c0.2-1.6,0.3-3.5,0.3-5.6c0-0.6,0-1.2,0-1.9c0-0.7,0-1.5-0.1-2.2l0.1,0.1
		c0.1-0.1,0.3-0.3,0.4-0.6c0.1-0.4,0.3-0.6,0.5-0.7l0.2,0c0.3-0.6,0.4-1.4,0.4-2.4c-0.1-0.3-0.2-0.3-0.5-0.2
		c-0.3,0.2-0.4,0.1-0.4-0.2c0-0.4,0.2-0.9,0.7-1.3c0.5-0.4,1-0.8,1.7-1.2c0.6-0.4,1.3-0.7,1.9-1c0.6-0.3,1.1-0.5,1.4-0.6
		c1-0.4,1.9-0.6,2.9-0.9c1-0.2,1.9-0.5,2.8-0.8c1.6-0.6,3-1.4,4.1-2.3c0.4,0.2,0.7,0.3,1.1,0.3c0.4,0.1,0.9,0,1.4-0.2
		c0.1,0.1,0.2,0.3,0.3,0.5c0,0.2,0.2,0.3,0.6,0.2v0.2c0,0.1,0,0.3-0.1,0.4c-0.1,0.1-0.1,0.3-0.1,0.5c0,0.1,0,0.1,0.1,0.2
		c0.1,0,0.1-0.1,0.2-0.2c0-0.1,0.1-0.2,0.3-0.2l0.2,0.1c-0.1,0.3-0.1,0.6-0.1,0.9c0,0.3,0,0.5,0,0.6c0,0.7,0,1.2,0.1,1.7
		c0.1,0.5,0.1,1.1,0.2,1.7l-0.2,0.3c-0.1,0.1-0.2,0.1-0.3,0c0-0.1-0.1-0.1-0.3,0c0.1,0.3,0.3,0.3,0.7,0.2l0.3-0.1
		c-0.1,0.3-0.2,0.5-0.3,0.6l-0.4-0.1c0.4,0.2,0.5,0.7,0.4,1.3c-0.1,0.6,0,1,0.4,1.3c-0.3,0.1-0.4,0.1-0.4-0.1c0,0.1,0,0.3,0.1,0.5
		c0,0.2,0.1,0.3,0.1,0.5c0,1-0.2,2.1-0.6,3.3c-0.4,1.2-0.6,2.5-0.6,4c-0.1,0.1-0.3,0-0.3-0.1c-0.1-0.1-0.2-0.2-0.3-0.1
		c0.3,0.1,0.5,0.4,0.6,0.9c0.1,0.5,0.1,0.9,0.1,1.4v1.2v0.1c0,0.4,0,0.8-0.1,1.2c0,0.5-0.1,0.9-0.1,1.5c0,0.7,0,1.5,0.1,2.2
		c0,0.7,0.1,1.5,0.1,2.3c0,2.1-0.1,4.2-0.2,6.3c-0.1,2.1-0.5,4-1.1,5.7c0.1,0.5,0.3,1,0.4,1.5c0.1,0.5,0.2,1,0.2,1.5
		c0,0.7-0.1,1.5-0.4,2.2c0.2,0.7,0.3,1.5,0.3,2.3c0,1.3-0.1,2.7-0.4,4.2c-0.2,1-0.3,2-0.3,2.8c3.1-1.1,6.3-2.3,9.5-3.4
		c0-0.4-0.1-0.5-0.2-0.5l-0.1,0.2c0-1.3,0.2-2.8,0.6-4.6c0.4-1.8,0.6-3.4,0.6-4.9v-1.1c0-0.7,0.1-1.5,0.2-2.4
		c0.1-0.9,0.2-1.8,0.2-2.6c0-1.2-0.2-2-0.6-2.6c0-0.1,0.1-0.2,0.2-0.2c0.1,0,0.3-0.1,0.4-0.2c-0.2-0.4-0.4-1-0.6-1.6
		c-0.2-0.6-0.4-1.2-0.5-1.8c-0.1-0.5-0.3-1-0.3-1.4c-0.1-0.4-0.1-0.7-0.1-0.7c0-0.1,0-0.3,0.1-0.5c0-0.2,0.1-0.3,0.1-0.5
		c0-0.5,0-1-0.1-1.6c-0.1-0.5-0.1-1-0.1-1.5c-0.1-0.8,0-1.6,0.3-2.6c0.3-0.9,0.4-1.8,0.4-2.6c0-1-0.1-2.1-0.3-3.1
		c-0.2-1-0.3-2-0.3-3.1c0-0.3,0-0.6,0.1-0.9c0.1-0.3,0.1-0.6,0.1-1c0-0.4,0-0.9-0.1-1.4c-0.1-0.5-0.1-1-0.1-1.6
		c0-1.6,0.1-3.3,0.4-5.2c0.3-1.8,0.5-3.6,0.7-5.4c0.4-0.2,0.7-0.1,0.7,0c0,0.2,0.1,0.3,0.2,0.3c0.7-0.3,1.2-0.6,1.2-0.9
		c0.1-0.3,0.3-0.6,0.8-1c0.4,0.2,1.2,0.1,2.6-0.4c1-0.4,2-0.8,3.1-1.3c1.1-0.5,2.1-1,2.9-1.4c2.1-1,4.3-1.9,6.6-2.7
		c1.8-0.6,3.6-1.2,5.4-1.5c1.8-0.4,3.7-0.9,5.6-1.6c0.6-0.2,1.2-0.5,1.7-0.8c0.5-0.3,1.1-0.6,1.7-0.8c1.7-0.6,3.3-1.1,4.7-1.5
		c1.4-0.4,2.8-0.4,4.1,0c0.4-0.1,0.7-0.3,0.9-0.5c0.2-0.2,0.5-0.4,0.9-0.5c0.1-0.1,0.3,0.3,0.5,1c0.2,0.7,0.3,1.6,0.4,2.6
		c0.1,1,0.2,2,0.3,3c0.1,1,0.1,1.7,0.1,2.2c0,1.6-0.2,3.2-0.6,4.8c-0.4,1.6-1.2,3-2.3,4.3c-0.4,0.1-0.6,0.1-0.7,0
		c-0.1-0.1-0.3-0.2-0.6-0.2c-2.2,0.9-4.2,1.8-6,2.7c-1.8,0.9-3.7,1.6-5.5,2.3c-0.4,0.2-1,0.4-1.7,0.6c-0.7,0.2-1.4,0.5-2.1,0.7
		c-0.7,0.2-1.4,0.3-2.1,0.4c-0.7,0-1.2-0.1-1.7-0.4c-0.3,0.3-0.8,0.5-1.6,0.8l-1.7,0.6c-0.1,0.1-0.3,0.9-0.6,2.4
		c-0.2,1.6-0.5,3.5-0.7,5.9c-0.3,2.4-0.5,5-0.8,7.8c-0.3,2.8-0.5,5.5-0.7,8.1c-0.2,2.6-0.4,4.8-0.6,6.8c-0.1,2-0.2,3.3-0.2,3.9
		c0,0.8,0,1.7,0.1,2.7c0,1,0.2,1.7,0.6,2.1c1.6-0.6,3.1-1.1,4.4-1.5c1.3-0.4,2.9-1,4.9-1.7c1-1.7,1.6-3.4,1.6-4.9
		c0-1.6,0.1-3.3,0.2-5.2c-1.5,0.4-2.7,0.5-3.5,0.3c-0.9-0.2-1.5-0.5-1.9-1.1c-0.4-0.6-0.7-1.3-0.9-2.2c-0.1-0.9-0.2-1.9-0.2-3
		c0-0.7,0-1.5,0.1-2.2c0-0.7,0.1-1.5,0.1-2.3c0-1,0.2-1.6,0.7-2c0.5-0.4,0.9-0.8,1.3-1.4c1-0.2,2.1-0.5,3.1-0.8c1-0.3,2-0.6,3-1
		c2.2-0.8,4.3-1.6,6.3-2.6c2.1-0.9,4.3-1.9,6.7-2.8c0.3,0.2,0.5,0.4,0.7,0.6c0.2,0.2,0.4,0.5,0.6,0.7c0.4-0.1,0.6-0.3,0.8-0.6
		c0.1-0.2,0.3-0.4,0.4-0.4c0.4-0.1,0.6,0.2,0.7,1.1c0.1,0.9,0.2,1.5,0.2,2.1c0,1-0.1,2.2-0.2,3.3c-0.1,1.2-0.2,2.3-0.2,3.3
		c0,1.6,0.2,3.1,0.7,4.3c0.4,1.2,0.7,2.8,0.7,4.7c0,2.4-0.2,4.8-0.6,7.3c0,0.2-0.1,0.5-0.1,0.7c0,0,0,0,0.1,0.1
		c0.3,0.1,0.5,0.4,0.6,0.7c0,1.5-0.2,2.8-0.5,4.1c-0.3,1.2-0.5,2.5-0.5,4c0,0.9,0.1,1.3,0.4,1.3c0.3,0,0.4,0,0.4,0.2v0.2l-0.2,0.1
		c-0.1,0-0.1,0-0.1-0.1c-0.1,0-0.1,0.1-0.1,0.2c0,0.2,0.1,0.4,0.4,0.6c0.3,0.2,0.4,0.7,0.4,1.5c0,3.3-0.1,7-0.4,11.1
		c-0.3,4.1-0.4,8-0.5,11.8c0,0.9,0,2.3,0.1,4.2c0,1.9,0.1,3.8,0.2,5.7c0.1,1.9,0.3,3.6,0.4,5c0.2,1.4,0.4,2.1,0.7,2
		c0.6-0.2,1.3-0.5,2-0.9c0.7-0.4,1.5-0.8,2.3-1.1c1.2-0.4,2.2-0.7,3.2-0.9c0.9-0.2,1.9-0.5,2.8-0.8c1.4-0.5,2.8-1.3,4.3-2.5l0.3,0.1
		c0,0.1-0.2,0.4-0.5,0.6s-0.5,0.6-0.5,0.8c0,0.1,0.1,0.1,0.3,0c0.2,0,0.4-0.1,0.4-0.1c0.4-0.2,0.8-0.4,1.2-0.7
		c0.4-0.3,0.8-0.6,1.4-0.8c0.4-0.2,0.7-0.2,0.9,0c0.1,0.1,0.3,0.3,0.3,0.5c0.1,0.2,0.1,0.4,0.2,0.5c0.1,0.2,0.3,0.2,0.6,0.1
		c0.1,0,0.1-0.1,0.2-0.1c0.1-0.1,0.1-0.1,0.2-0.1c0.4,1.3,0.7,2.6,0.7,4C327.4,245.3,327.3,246.2,327.2,247.3z M333.9,132.2
		c-0.1-1.5-0.1-3.3-0.1-5.1l-0.1,0c-0.4,1.7-0.9,3.7-1.4,5.4l-1.5,5.4l-2.2,0.8l-1.4-4.4c-0.4-1.3-0.8-3-1.1-4.5l0,0
		c-0.1,1.7-0.1,3.7-0.2,5.3l-0.2,4.8l-2.6,1l0.8-12.8l3.8-1.4l1.2,3.7c0.4,1.3,0.8,2.7,1.1,4.1l0.1,0c0.3-1.6,0.8-3.4,1.2-4.9
		l1.3-4.7l3.7-1.3l0.7,12.3l-2.8,1L333.9,132.2z M380.9,210.1c0.4,6.2,0.7,12.3,0.9,18.3l-0.2,0.1c-0.1,0.1-0.2,0-0.2-0.3v-0.3v-0.2
		c-0.4,0.6-0.6,1.2-0.6,1.8c0,0.2,0,0.4,0.1,0.6c0,0.2,0.1,0.4,0.1,0.7c0,0.3-0.1,0.8-0.2,1.4c0,0.1,0,0.1,0.1,0.2
		c0.1-0.1,0.3-0.2,0.4-0.4c0.1-0.2,0.2-0.4,0.2-0.5c0,0.8-0.3,1.6-0.8,2.4c-0.5,0.8-0.8,1.7-0.8,2.7c-0.7,1-1.6,1.8-2.5,2.4
		c-0.9,0.6-1.9,1-2.9,1.4c-0.8,0.3-1.6,0.6-2.5,0.9c-0.9,0.3-1.7,0.6-2.5,0.9c-0.5,0.2-1,0.4-1.5,0.6c-0.5,0.2-0.9,0.5-1.4,0.8
		c-0.1,0-0.3-0.1-0.3-0.2c-0.1-0.1-0.2-0.1-0.4,0l-0.3,0.1c-0.4-1.7-0.7-3.5-0.9-5.3c-0.1-1.9-0.2-3.8-0.2-5.7c0-1.8,0-3.6,0.1-5.4
		c0-1.8,0.1-3.6,0.1-5.4c0-0.9,0-1.8,0-2.6c0-0.8,0-1.7-0.1-2.6c-0.4,0-1.1,0.1-2.1,0.4c-1,0.3-2.1,0.6-3.3,1
		c-1.2,0.4-2.3,0.7-3.3,1.1c-1,0.4-1.8,0.7-2.3,0.8c-1,0.4-1.7,1.1-2,2.3c-0.3,1.1-0.4,2.5-0.4,3.9v3.3c0,1.2-0.1,2.4-0.3,3.7
		c-0.2,1.3-0.3,2.6-0.3,3.8c0,1.1,0.1,2.3,0.3,3.6c0.2,1.3,0.3,2.6,0.3,3.9c0,1.7-0.3,3.3-0.8,4.8c-0.6,1.5-1.7,2.6-3.4,3.2
		c-0.1,0.1-0.3,0.1-0.4,0.1c-0.1,0-0.2,0-0.4,0.1c0.4-0.3,0.7-0.7,1.1-1.1c0.4-0.5,0.8-0.9,1.3-1.3c-0.3-0.3-0.7-0.3-1.2-0.1
		c-0.6,0.2-1.2,0.6-1.8,1.2c-0.6,0.6-0.9,1.1-1,1.5c-1.3,0.8-2.5,1.3-3.5,1.6c-1,0.3-2.2,0.7-3.5,1.4c-0.2-0.4-0.5-0.8-0.7-1.2
		c-0.3-0.4-0.6-0.6-1.1-0.8c0-1.1-0.1-2.1-0.2-2.9c-0.1-0.8-0.2-1.6-0.2-2.4c0-1.1,0.2-2.1,0.6-3.1c-0.7-0.9-1.1-2.4-1.2-4.4
		c-0.1-2-0.2-4-0.2-6c0-0.9,0.1-1.6,0.3-2.1c0.2-0.5,0.3-1.2,0.5-2c0.1-1.3,0.2-2.6,0.3-4c0-1.3,0.1-2.7,0.1-4v-6.4
		c0-1.4,0.1-2.7,0.2-3.9c0.1-1.2,0.2-2.2,0.2-3.1c0-0.7-0.1-1.3-0.2-1.9c-0.1-0.6-0.2-1.1-0.2-1.4c0.1-2.8,0.2-5.7,0.5-8.7
		c0.3-3,0.4-5.9,0.4-8.7v-3.2c0-0.5,0-1,0-1.5s0.1-1,0.2-1.7c0.5-1.1,1.6-2.3,3.2-3.5c1.6-1.2,3.5-2.3,5.8-3.5
		c2.2-1.1,4.6-2.2,7-3.2c2.5-1,4.8-1.9,7-2.7c1.4-0.5,2.8-1,4.2-1.3c1.4-0.4,2.7-0.8,4-1.3c1.1-0.4,2.2-0.9,3.3-1.5
		c1.1-0.6,2.1-1,3-1.4c0.3-0.1,0.8-0.2,1.4-0.4c0.7-0.2,1-0.1,1,0.2c0,0.4-0.3,0.8-0.8,1.2c-0.6,0.5-1.1,0.8-1.5,1.2
		c1.3-0.5,2.4-0.6,3.3-0.4c0.9,0.2,2,0.1,3.2-0.4c0.3,0.5,0.5,1,0.6,1.5c0.1,0.5,0.1,1.1,0.1,1.7c0,0.4,0,0.9-0.1,1.4
		c0,0.5-0.1,1-0.1,1.4c0,0.7,0.1,1.4,0.3,2c-0.6,3-1,6-1.2,9c-0.2,3.1-0.3,6.2-0.3,9.5C380.2,197.7,380.4,203.9,380.9,210.1z
		 M440.2,167.9c-0.5,4.8-1,9.8-1.4,15.1v1.2c0,1.3,0.1,2.5,0.2,3.6c0.1,1.1,0.2,2.3,0.2,3.6c0,1-0.1,1.9-0.4,2.9
		c-0.3,1-0.5,2-0.7,2.9c-0.1,1.2-0.3,2.8-0.4,4.9c-0.1,2.1-0.6,4.1-1.3,6.1c-1,2.4-2.2,4.4-3.6,5.9c-1.4,1.5-3.2,3.2-5.4,5
		c-0.4,0.1-0.9,0.2-1.7,0.5c-2.8,1-6,2.5-9.4,4.5c-3.5,2-7.3,3.8-11.4,5.3c-1.5,0.5-2.8,1-4.1,1.3c-1.3,0.3-2.3,0.4-3.1,0.1
		c-0.1,0-0.4-0.1-0.8-0.3c-0.4-0.2-0.8-0.4-1.2-0.6c-0.4-0.2-0.8-0.5-1.1-0.7c-0.3-0.2-0.5-0.4-0.5-0.6c-0.3,0.1-0.4,0.2-0.4,0.4
		c-0.9-0.9-1.8-1.8-2.8-2.6c-1-0.8-1.6-2-1.8-3.5v-0.6c0-0.6,0-1.2,0.1-1.9c0.1-0.7,0.1-1.3,0.1-1.9c0-1.1-0.1-2.2-0.3-3.3
		c-0.2-1.1-0.3-2.1-0.3-3.2c0-1.2,0.2-2.2,0.6-2.9c0.4-0.8,0.9-1.4,1.6-2c0.6-0.6,1.3-1,2.2-1.4c0.8-0.4,1.6-0.7,2.4-1
		c1.7-0.6,3.4-1.1,5-1.4c1.6-0.3,3.1-0.6,4.5-1c0,0.2,0.1,0.5,0.2,0.7c0.1,0.2,0.2,0.4,0.2,0.6c0,0.2-0.1,0.4-0.4,0.5
		c0.4,0.2,0.6,0.4,0.8,0.7c0.2,0.3,0.3,0.6,0.3,0.8c0,0.4,0,0.9-0.1,1.4c0,0.5-0.1,0.9-0.1,1.4c0,0.6,0.1,1.2,0.4,1.7
		c0.3,0.5,0.9,0.6,1.8,0.3c0.3-0.1,0.6-0.3,0.8-0.5c0.3-0.2,0.6-0.4,1.2-0.7c1-0.4,1.9-0.8,2.9-1.2c1-0.4,2-0.7,2.9-1.1
		c1-0.4,1.9-0.8,2.7-1.3c0.8-0.5,1.6-1.1,2.2-1.8c0.4-2.9,0.7-6.1,0.7-9.6c0-0.9,0-1.8,0-2.7c0-0.9-0.1-1.7-0.2-2.6
		c-3.2,1.1-6.4,2.4-9.6,4c-3.3,1.6-6.3,2.9-9.2,4c-1.3,0.5-2.3,0.6-2.8,0.5c-0.6-0.2-1-0.4-1.3-0.8c-0.3-0.3-0.6-0.7-0.9-1
		c-0.3-0.3-0.9-0.4-1.7-0.3c-0.1-0.8-0.6-1.3-1.2-1.5c-0.7-0.2-1.3-0.4-1.9-0.6c-0.1-1.7-0.2-3.5-0.3-5.3c-0.1-1.8-0.2-3.6-0.2-5.4
		c0-2.6,0.3-4.9,0.8-6.9c-0.3-0.4-0.4-1.2-0.4-2.3c0-2.3,0.2-4.4,0.7-6.5c0.4-2,0.7-4,0.7-6c0-0.5-0.1-1-0.2-1.6
		c0.4-0.2,0.6-0.4,0.6-0.4c0-0.1,0-0.3-0.1-0.4c0-0.1-0.1-0.3-0.1-0.7c1-0.7,2.1-1.3,3.2-1.9c1.1-0.6,2.3-1.1,3.4-1.5
		c2-0.7,3.9-1.1,5.7-1.1c0.4,1,0.6,2.1,0.7,3.2c0.1,1.2,0.2,2.4,0.2,3.8c0,2.6,0.2,4.9,0.6,7c0.4,2,0.7,4.2,1.1,6.4
		c1.1,0.6,2.1,1.5,2.9,2.5c0.7-0.6,1.6-1.2,2.6-1.8c1-0.5,1.9-1.1,2.9-1.6c1-0.5,2-1,2.9-1.5c1-0.5,1.9-1.1,2.8-1.7v-0.7
		c0-1,0.1-1.8,0.3-2.5c0.2-0.7,0.4-1.4,0.6-2.1c0.2-0.6,0.4-1.3,0.6-2.1c0.2-0.7,0.3-1.7,0.3-2.8c-0.4,0.1-0.7,0.1-0.9-0.1
		c-0.1,0.4-0.2,0.6-0.2,0.7c0,0.2,0.1,0.4,0.2,0.7c0.1,0.2,0.2,0.5,0.2,0.8c0,0.1,0,0.2-0.1,0.2c0,0.1-0.1,0.2-0.1,0.2
		c-0.1-0.2-0.3-0.5-0.3-1c-0.1-0.5-0.1-1-0.1-1.3c0-0.5,0.1-0.8,0.4-0.9c0.1-0.1,0.2,0,0.2,0.3v0.3c0.2-0.6,0.3-1.2,0.3-1.8
		c0-0.5-0.1-1-0.2-1.5c-0.1-0.5-0.2-1-0.2-1.7c-0.2,0.5-0.3,1.1-0.3,1.7c0,0.4,0,0.8,0.1,1.2c0,0.4,0.1,0.7,0.1,1
		c0,0.2-0.1,0.4-0.2,0.4c-0.3,0.1-0.4,0-0.4-0.3c0-0.3-0.1-0.4-0.4-0.3l-0.1,0c0.4-0.4,0.6-1,0.6-1.9c0-0.4,0-0.9-0.1-1.3
		c0-0.4-0.1-0.9-0.1-1.3c0-1,0.3-1.6,0.9-1.9c0-0.5-0.1-0.9-0.4-1c-0.3-0.2-0.4-0.4-0.4-0.8c0-0.2,0-0.4,0.1-0.6
		c0.1-0.1,0.2,0.1,0.2,0.4v0.4c0.3-0.2,0.5-0.4,0.6-0.6c0.1-0.2,0.1-0.5,0.2-0.8c0-0.3,0.1-0.5,0.1-0.7c0-0.2,0.1-0.4,0.3-0.5
		c0-0.3-0.1-0.4-0.4-0.2c-0.3,0.1-0.4,0.1-0.5-0.1c0.6-1.7,1.6-3.2,3.1-4.6c1.5-1.4,3.1-2.4,5-3c1.1-0.4,2.3-0.7,3.7-0.8
		c0.3,0.5,0.7,0.8,1.2,0.9c0.5,0.1,1,0.1,1.5,0.1c0.5,0,1,0,1.3,0.1c0.4,0.1,0.6,0.4,0.6,0.8c0,0.3-0.1,0.5-0.3,0.7
		c0.2,0.1,0.5,0,0.9-0.1c0.4-0.1,0.6,0.2,0.6,1.1c0,0.9-0.1,1.8-0.4,2.7c-0.3,0.9-0.4,1.8-0.4,2.6c0,1,0.1,2.1,0.3,3.1
		c0.2,1,0.3,2.1,0.3,3.2C441,158.5,440.7,163.1,440.2,167.9z"/>
	<path class="st0" d="M432.9,141.1c-0.4-0.1-1-0.1-1.8,0.2c-0.8,0.3-1.3,0.6-1.6,1c0.2,0.1,0.5,0.1,0.8,0.1c0.3,0,0.7-0.1,1.1-0.2
		C432,142,432.5,141.6,432.9,141.1z"/>
	<path class="st0" d="M409.6,216.9l-0.6,0.2c-0.6,0.2-0.9,0.4-1,0.7c0.1,0.1,0.4,0.1,0.8-0.1c0.3-0.1,0.6-0.3,0.9-0.4
		c0.3-0.2,0.4-0.3,0.4-0.5c0-0.1,0-0.1-0.1-0.2C410,216.7,409.8,216.8,409.6,216.9z"/>
	<path class="st0" d="M408.9,223c-0.4,0.2-0.9,0.4-1.3,0.7c-0.4,0.3-0.7,0.7-0.8,1.1c0.5,0,1.1-0.1,1.9-0.4c1.4-0.5,2.6-1.3,3.5-2.4
		c-0.5,0.2-1.1,0.3-1.6,0.5C410.1,222.6,409.5,222.8,408.9,223z"/>
	<path class="st0" d="M414.2,214.6c-1,0.4-1.8,0.9-2.4,1.6c0.8-0.4,1.8-0.9,2.8-1.4c1.1-0.5,1.6-1,1.6-1.5
		C415.9,213.8,415.2,214.2,414.2,214.6z"/>
	<path class="st0" d="M347.5,226.3c0-0.5,0.1-1,0.2-1.4c0.1-0.4,0.2-0.8,0.2-1.2c0-0.4-0.1-0.8-0.4-1.1c0,0.1,0,0.3,0.1,0.4
		c0,0.1,0.1,0.2,0.1,0.4c0,0.4-0.1,0.9-0.2,1.4c-0.1,0.5-0.2,0.9-0.2,1.3c0,0.4,0.1,0.8,0.4,0.9
		C347.5,226.9,347.5,226.7,347.5,226.3z"/>
	<path class="st0" d="M306.5,250.8c0.9-0.5,1.5-1.2,1.8-2.1c-0.2-0.1-0.6,0-1,0.1c-0.4,0.1-0.7,0.3-0.9,0.4c0,0.3,0,0.5,0.1,0.8
		C306.4,250.2,306.5,250.5,306.5,250.8z"/>
	<path class="st0" d="M310.6,255.3c0.4-0.3,0.8-0.5,1.2-0.7c0.4-0.2,0.7-0.5,0.8-0.9c-0.2,0.1-0.4,0.2-0.6,0.3
		c-0.2,0.1-0.4,0.2-0.5,0.3c-0.2,0.1-0.4,0.1-0.4-0.1v0.2c0,0.2-0.1,0.3-0.3,0.3c-0.2,0.1-0.3,0.2-0.3,0.3
		C310.4,255.2,310.5,255.2,310.6,255.3z"/>
	<path class="st0" d="M306.5,259.8c0.7-0.3,1.3-0.6,1.8-0.9c0.5-0.4,0.9-0.7,1.4-1.1c-0.1,0-0.4,0-0.8,0.2c-0.5,0.2-1,0.5-1.5,1
		C306.9,259.3,306.6,259.6,306.5,259.8z"/>
	<path class="st0" d="M316,249.3c-0.1,0.1-0.3,0.2-0.5,0.4c-0.2,0.2-0.4,0.4-0.7,0.5l-0.2,0.1c0,0.4,0.1,0.5,0.3,0.5
		c0.2,0,0.4,0,0.6,0.1c0.1-0.3,0.4-0.5,0.6-0.7c0.3-0.2,0.4-0.5,0.5-0.8C316.4,249.2,316.2,249.2,316,249.3z"/>
	<path class="st0" d="M310.6,260.2c-1.9,0.7-3.4,1.6-4.5,2.7c1,0.1,2.1-0.1,3.5-0.6c1-0.4,2-0.8,2.9-1.3c0.9-0.5,1.8-1,2.5-1.5
		c-0.6,0-1.3,0.1-2.1,0.2C312.2,259.7,311.4,259.9,310.6,260.2z"/>
	<path class="st0" d="M301.6,259.8c-0.5,0.4-0.8,0.9-0.9,1.4c0.8-0.4,1.6-0.7,2.3-1.1c0.7-0.3,1.3-0.9,1.7-1.6
		c-0.6,0.1-1.1,0.2-1.4,0.3C302.6,259,302.1,259.4,301.6,259.8z"/>
	<path class="st0" d="M319.3,251.2c-0.4,0.5-0.6,1.1-0.6,1.6c0,0.4,0.1,0.7,0.3,1.1c0.6-0.4,1.1-0.8,1.4-1.4
		c0.3-0.6,0.5-1.2,0.5-1.8c0-0.4-0.1-0.7-0.3-1.1C320.1,250.2,319.7,250.7,319.3,251.2z"/>
	<path class="st0" d="M300.7,248.4c-0.1,0,0-0.1,0.1-0.3l-0.6-1c-0.1,0.6-0.2,1.1-0.2,1.3c0,0.1,0.1,0.3,0.2,0.4
		c0-0.1,0-0.2,0.1-0.3l0.2,0C300.7,248.4,300.8,248.4,300.7,248.4z"/>
	<path class="st0" d="M305,209.1l-0.1,0v0.2v0.8c0,0.2,0.1,0.3,0.2,0.3c0.1,0,0.1-0.2,0.2-0.4c0.1-0.2,0.1-0.4,0.1-0.6
		C305.5,209,305.3,209,305,209.1z"/>
	<path class="st0" d="M349.9,228.8c0,0.1-0.1,0.3-0.2,0.5c-0.1,0.2-0.2,0.4-0.2,0.6c0,0.1,0,0.2,0.1,0.3l0.1,0.1
		c0.2-0.1,0.3-0.3,0.3-0.8C350.1,228.9,350.1,228.7,349.9,228.8z"/>
	<path class="st0" d="M311.4,257.7c0.6-0.2,1-0.4,1.2-0.6c0.2-0.2,0.3-0.4,0.3-0.5c0-0.3-0.1-0.4-0.4-0.3
		C311.9,256.4,311.6,256.9,311.4,257.7z"/>
	<path class="st0" d="M340.4,247.8c0.1-0.3-0.1-0.4-0.4-0.2c-0.8,0.3-1.2,1.1-1.2,2.4c0,0.1,0,0.3,0.1,0.4c0,0.1,0.1,0.2,0.1,0.4
		c0.4-0.3,0.7-0.6,0.9-0.8c0.1-0.2,0.3-0.4,0.4-0.6c0.1-0.2,0.2-0.4,0.3-0.7c0.1-0.2,0.3-0.5,0.6-0.8c-0.1,0.1-0.2,0.2-0.3,0.2
		C340.4,248.2,340.3,248.1,340.4,247.8z"/>
	<path class="st0" d="M318.5,249.2c0,0.2,0,0.4,0.1,0.5c0.1-0.3,0.3-0.6,0.6-0.8c0.3-0.2,0.5-0.3,0.8-0.5c0.3-0.2,0.5-0.4,0.7-0.6
		c0.2-0.3,0.4-0.7,0.6-1.3c-0.6,0.4-1.2,0.8-1.8,1.2C318.9,248.2,318.5,248.6,318.5,249.2z"/>
	<path class="st0" d="M301.7,171.5c0,0.5,0.2,0.7,0.7,0.5v-0.3c0-0.4,0.1-0.8,0.4-1.2l-0.3,0.1c-0.1,0-0.1,0-0.1-0.1
		c0-0.1,0.1-0.2,0.2-0.4c0.1-0.2,0.2-0.3,0.2-0.5c0-0.1-0.2-0.1-0.5-0.1c-0.3,0-0.6,0-0.8,0c0,0.3-0.1,0.5-0.2,0.7
		c-0.1,0.2-0.2,0.4-0.3,0.6C301.5,170.8,301.7,171,301.7,171.5z"/>
	<path class="st0" d="M347.8,244.7c0,0.7-0.1,1.2-0.2,1.7c-0.1,0.5-0.2,1-0.2,1.5v0.4c0.4-0.2,0.8-0.5,0.9-0.8
		c0.2-0.3,0.3-0.7,0.3-1C348.6,245.6,348.3,245,347.8,244.7z"/>
	<path class="st0" d="M336.4,224.5c-0.1,0.6-0.1,1.2-0.2,1.6c0,0.5-0.1,0.9-0.1,1.2c0,0.6,0,1.1,0.1,1.6c0,0.5,0.1,1.1,0.1,1.6
		c0,0.4,0,0.8,0,1.2c0,0.4,0,0.8-0.1,1.3c0.4-0.9,0.7-2.1,0.7-3.6c0-0.9-0.1-1.8-0.2-2.7C336.6,225.9,336.5,225.1,336.4,224.5z"/>
	<path class="st0" d="M175,256.6c0.2,0,0.4-0.1,0.5-0.1c-0.2-0.5-0.4-1-0.6-1.4C175,255.6,175,256.1,175,256.6z"/>
</g>
</svg>
